<?xml version="1.0" encoding="UTF-8"?>
<COLLADA xmlns="http://www.collada.org/2005/11/COLLADASchema" version="1.4.1">
<!--
# File generated by ImageToStl.com - Free Image and 3D model conversion tools
-->
  <asset>
    <contributor>
      <author>ImageToStl.com</author>
      <authoring_tool>ImageToStl.com</authoring_tool>
    </contributor>
    <created>2025-05-24T11:27:30</created>
    <modified>2025-05-24T11:27:30</modified>
    <up_axis>Z_UP</up_axis>
  </asset>
  <library_effects>
    <effect id="effect_0">
        <profile_COMMON>
          <technique sid="common">
            <phong>
              <diffuse>
                <color>0.85 0.85 0.85 1</color>
              </diffuse>
              <specular>
                <color>0.05 0.05 0.05 1</color>
              </specular>
              <shininess>
                <float>64</float>
              </shininess>
            </phong>
          </technique>
        </profile_COMMON>
    </effect>
  </library_effects>
  <library_materials>
    <material id="mat_0">
      <instance_effect url="#effect_0"/>
    </material>
  </library_materials>
  <library_geometries>
    <geometry id="geometry_1671293a_c134_41be_9058_cd0e63bae1ef">
      <mesh>
        <source id="pos_0">
          <float_array id="pos_0-array" count="1272">0.082 0.00575 0.0065 0.082 0.00064051 0.0065 0.082 0.001025 0.00634234 0.082 -0.00014051 0.0065 0.082 -0.00525 0.0065 0.082 -0.000525 0.00634234 0.082 -0.00109234 0.005775 0.082 -0.00525 -0 0.082 -0.00109234 0.004225 0.082 -0.0013 0.005 0.082 0.00159234 0.005775 0.082 0.0018 0.005 0.082 0.00575 -0 0.082 0.00159234 0.004225 0.082 0.001025 0.00365766 0.082 0.00025 0.00345 0.082 -0.000525 0.00365766 0.058 0.00575 0.0065 0.058 0.00575 -0 0.058 -0.00525 0.0065 0.058 -0.00525 -0 0.0785 -0.00175 0.01 0.0785 -0.00014051 0.01 0.0615 -0.00175 0.01 0.07850036 0.00024998 0.01 0.0615 0.00225 0.01 0.0785 0.00064051 0.01 0.0785 0.00225 0.01 0.105 -0.000525 0.00634234 0.105 0.00025 0.00655 0.105 -0.00109234 0.005775 0.105 -0.0013 0.005 0.105 -0.00109234 0.004225 0.105 -0.000525 0.00365766 0.105 0.00025 0.00345 0.105 0.001025 0.00365766 0.105 0.00159234 0.004225 0.105 0.0018 0.005 0.105 0.00159234 0.005775 0.105 0.001025 0.00634234 0.082 0.00025 0.00655 0.105 0.00025 0.005 0.07904752 0.00279752 0.00995691 0.07958156 0.00064051 0.0098287 0.07958156 0.00333156 0.0098287 0.08008897 0.00383897 0.00961852 0.08055725 0.00064051 0.00933156 0.08055725 0.00430725 0.00933156 0.08097488 0.00472487 0.00897487 0.08133156 0.00064051 0.00855725 0.08133156 0.00508156 0.00855725 0.08161853 0.00536852 0.00808897 0.0818287 0.00064051 0.00758156 0.0818287 0.0055787 0.00758156 0.08195691 0.00570691 0.00704752 0.06095248 0.00279752 0.00995691 0.06041844 0.00333156 0.0098287 0.05991103 0.00383897 0.00961852 0.05944275 0.00430725 0.00933156 0.05902513 0.00472487 0.00897487 0.05866844 0.00508156 0.00855725 0.05838148 0.00536852 0.00808897 0.0581713 0.0055787 0.00758156 0.05804309 0.00570691 0.00704752 0.0795724 0.00024998 0.00983177 0.07958156 -0.00014051 0.0098287 0.08054139 0.00024998 0.00934327 0.08055725 -0.00014051 0.00933156 0.08131418 0.00024998 0.00858144 0.08133156 -0.00014051 0.00855725 0.08181648 0.00024998 0.00761953 0.0818287 -0.00014051 0.00758156 0.06095248 -0.00229752 0.00995691 0.06041844 -0.00283156 0.0098287 0.05991103 -0.00333897 0.00961852 0.05944275 -0.00380725 0.00933156 0.05902513 -0.00422487 0.00897487 0.05838148 -0.00486852 0.00808897 0.05866844 -0.00458156 0.00855725 0.05804309 -0.00520691 0.00704752 0.0581713 -0.0050787 0.00758156 0.08195691 -0.00520691 0.00704752 0.0818287 -0.0050787 0.00758156 0.08161853 -0.00486852 0.00808897 0.08133156 -0.00458156 0.00855725 0.08055725 -0.00380725 0.00933156 0.08097488 -0.00422487 0.00897487 0.07904752 -0.00229752 0.00995691 0.07958156 -0.00283156 0.0098287 0.08008897 -0.00333897 0.00961852 0.00575 0.082 0.01 0.033965 0.082 -0.003 0.00575 0.082 -0 -0.033965 0.082 -0.003 -0.00575 0.082 -0 -0.00575 0.082 0.01 -0.033965 0.082 0.11 0.033965 0.082 0.11 -0.033965 -0.082 -0.003 -0.00575 -0.082 -0 -0.00575 -0.082 0.01 0.00575 -0.082 -0 0.033965 -0.082 -0.003 0.00575 -0.082 0.01 0.033965 -0.082 0.11 -0.033965 -0.082 0.11 0.00575 0.0735 -0 0.03044418 0.0735 -0 0.00575 0.0735 0.01 0.03044418 0.0735 0.07 -0.00575 0.0735 0.01 -0.03044418 0.0735 0.07 -0.00575 0.0735 -0 -0.03044418 0.0735 -0 -0.00575 -0.0735 -0 -0.03044418 -0.0735 -0 -0.00575 -0.0735 0.01 -0.03044418 -0.0735 0.07 0.00575 -0.0735 0.01 0.03044418 -0.0735 0.07 0.00575 -0.0735 -0 0.03044418 -0.0735 -0 0.082 -0.033965 0.11 0.082 -0.033965 -0.003 0.082 -0.00575 -0 0.082 -0.00575 0.01 0.082 0.00575 -0 0.082 0.033965 -0.003 0.082 0.00575 0.01 0.082 0.033965 0.11 -0.082 0.033965 0.11 -0.082 0.033965 -0.003 -0.082 0.00575 0.01 -0.082 -0.033965 0.11 -0.082 -0.00575 0.01 -0.082 -0.033965 -0.003 -0.082 -0.00575 -0 -0.082 0.00575 -0 0.0735 0.03044418 0.07 0.0735 0.03044418 -0 0.0735 -0.00575 -0 0.0735 -0.03044418 -0 0.0735 -0.00575 0.01 0.0735 -0.03044418 0.07 0.0735 0.00575 0.01 0.0735 0.00575 -0 -0.0735 -0.03044418 0.07 -0.0735 -0.03044418 -0 -0.0735 0.00575 -0 -0.0735 0.03044418 -0 -0.0735 0.00575 0.01 -0.0735 0.03044418 0.07 -0.0735 -0.00575 0.01 -0.0735 -0.00575 -0 -0.00525 0.082 0.0065 -0.00014051 0.082 0.0065 -0.000525 0.082 0.00634234 0.00064051 0.082 0.0065 0.00575 0.082 0.0065 0.001025 0.082 0.00634234 0.00159234 0.082 0.005775 0.00575 0.082 -0 0.00159234 0.082 0.004225 0.0018 0.082 0.005 -0.00109234 0.082 0.005775 -0.0013 0.082 0.005 -0.00525 0.082 -0 -0.00109234 0.082 0.004225 -0.000525 0.082 0.00365766 0.00025 0.082 0.00345 0.001025 0.082 0.00365766 -0.00525 0.058 0.0065 -0.00525 0.058 -0 0.00575 0.058 0.0065 0.00575 0.058 -0 0.00225 0.0785 0.01 0.00064051 0.0785 0.01 0.00225 0.0615 0.01 0.00025002 0.07850036 0.01 -0.00175 0.0615 0.01 -0.00014051 0.0785 0.01 -0.00175 0.0785 0.01 0.001025 0.105 0.00634234 0.00025 0.105 0.00655 0.00159234 0.105 0.005775 0.0018 0.105 0.005 0.00159234 0.105 0.004225 0.001025 0.105 0.00365766 0.00025 0.105 0.00345 -0.000525 0.105 0.00365766 -0.00109234 0.105 0.004225 -0.0013 0.105 0.005 -0.00109234 0.105 0.005775 -0.000525 0.105 0.00634234 0.00025 0.082 0.00655 0.00025 0.105 0.005 -0.00229752 0.07904752 0.00995691 -0.00014051 0.07958156 0.0098287 -0.00283156 0.07958156 0.0098287 -0.00333897 0.08008897 0.00961852 -0.00014051 0.08055725 0.00933156 -0.00380725 0.08055725 0.00933156 -0.00422487 0.08097488 0.00897487 -0.00014051 0.08133156 0.00855725 -0.00458156 0.08133156 0.00855725 -0.00486852 0.08161853 0.00808897 -0.00014051 0.0818287 0.00758156 -0.0050787 0.0818287 0.00758156 -0.00520691 0.08195691 0.00704752 -0.00229752 0.06095248 0.00995691 -0.00283156 0.06041844 0.0098287 -0.00333897 0.05991103 0.00961852 -0.00380725 0.05944275 0.00933156 -0.00422487 0.05902513 0.00897487 -0.00458156 0.05866844 0.00855725 -0.00486852 0.05838148 0.00808897 -0.0050787 0.0581713 0.00758156 -0.00520691 0.05804309 0.00704752 0.00025002 0.0795724 0.00983177 0.00064051 0.07958156 0.0098287 0.00025002 0.08054139 0.00934327 0.00064051 0.08055725 0.00933156 0.00025002 0.08131418 0.00858144 0.00064051 0.08133156 0.00855725 0.00025002 0.08181648 0.00761953 0.00064051 0.0818287 0.00758156 0.00279752 0.06095248 0.00995691 0.00333156 0.06041844 0.0098287 0.00383897 0.05991103 0.00961852 0.00430725 0.05944275 0.00933156 0.00472487 0.05902513 0.00897487 0.00536852 0.05838148 0.00808897 0.00508156 0.05866844 0.00855725 0.00570691 0.05804309 0.00704752 0.0055787 0.0581713 0.00758156 0.00570691 0.08195691 0.00704752 0.0055787 0.0818287 0.00758156 0.00536852 0.08161853 0.00808897 0.00508156 0.08133156 0.00855725 0.00430725 0.08055725 0.00933156 0.00472487 0.08097488 0.00897487 0.00279752 0.07904752 0.00995691 0.00333156 0.07958156 0.0098287 0.00383897 0.08008897 0.00961852 0.00575 -0.082 0.0065 0.00064051 -0.082 0.0065 0.001025 -0.082 0.00634234 -0.00014051 -0.082 0.0065 -0.00525 -0.082 0.0065 -0.000525 -0.082 0.00634234 -0.00109234 -0.082 0.005775 -0.00525 -0.082 -0 -0.00109234 -0.082 0.004225 -0.0013 -0.082 0.005 0.00159234 -0.082 0.005775 0.0018 -0.082 0.005 0.00575 -0.082 -0 0.00159234 -0.082 0.004225 0.001025 -0.082 0.00365766 0.00025 -0.082 0.00345 -0.000525 -0.082 0.00365766 0.00575 -0.058 0.0065 0.00575 -0.058 -0 -0.00525 -0.058 0.0065 -0.00525 -0.058 -0 -0.00175 -0.0785 0.01 -0.00014051 -0.0785 0.01 -0.00175 -0.0615 0.01 0.00024998 -0.07850036 0.01 0.00225 -0.0615 0.01 0.00064051 -0.0785 0.01 0.00225 -0.0785 0.01 -0.000525 -0.105 0.00634234 0.00025 -0.105 0.00655 -0.00109234 -0.105 0.005775 -0.0013 -0.105 0.005 -0.00109234 -0.105 0.004225 -0.000525 -0.105 0.00365766 0.00025 -0.105 0.00345 0.001025 -0.105 0.00365766 0.00159234 -0.105 0.004225 0.0018 -0.105 0.005 0.00159234 -0.105 0.005775 0.001025 -0.105 0.00634234 0.00025 -0.082 0.00655 0.00025 -0.105 0.005 0.00279752 -0.07904752 0.00995691 0.00064051 -0.07958156 0.0098287 0.00333156 -0.07958156 0.0098287 0.00383897 -0.08008897 0.00961852 0.00064051 -0.08055725 0.00933156 0.00430725 -0.08055725 0.00933156 0.00472487 -0.08097488 0.00897487 0.00064051 -0.08133156 0.00855725 0.00508156 -0.08133156 0.00855725 0.00536852 -0.08161853 0.00808897 0.00064051 -0.0818287 0.00758156 0.0055787 -0.0818287 0.00758156 0.00570691 -0.08195691 0.00704752 0.00279752 -0.06095248 0.00995691 0.00333156 -0.06041844 0.0098287 0.00383897 -0.05991103 0.00961852 0.00430725 -0.05944275 0.00933156 0.00472487 -0.05902513 0.00897487 0.00508156 -0.05866844 0.00855725 0.00536852 -0.05838148 0.00808897 0.0055787 -0.0581713 0.00758156 0.00570691 -0.05804309 0.00704752 0.00024998 -0.0795724 0.00983177 -0.00014051 -0.07958156 0.0098287 0.00024998 -0.08054139 0.00934327 -0.00014051 -0.08055725 0.00933156 0.00024998 -0.08131418 0.00858144 -0.00014051 -0.08133156 0.00855725 0.00024998 -0.08181648 0.00761953 -0.00014051 -0.0818287 0.00758156 -0.00229752 -0.06095248 0.00995691 -0.00283156 -0.06041844 0.0098287 -0.00333897 -0.05991103 0.00961852 -0.00380725 -0.05944275 0.00933156 -0.00422487 -0.05902513 0.00897487 -0.00486852 -0.05838148 0.00808897 -0.00458156 -0.05866844 0.00855725 -0.00520691 -0.05804309 0.00704752 -0.0050787 -0.0581713 0.00758156 -0.00520691 -0.08195691 0.00704752 -0.0050787 -0.0818287 0.00758156 -0.00486852 -0.08161853 0.00808897 -0.00458156 -0.08133156 0.00855725 -0.00380725 -0.08055725 0.00933156 -0.00422487 -0.08097488 0.00897487 -0.00229752 -0.07904752 0.00995691 -0.00283156 -0.07958156 0.0098287 -0.00333897 -0.08008897 0.00961852 -0.082 -0.00575 0.0065 -0.082 -0.00064051 0.0065 -0.082 -0.001025 0.00634234 -0.082 0.00014051 0.0065 -0.082 0.00525 0.0065 -0.082 0.000525 0.00634234 -0.082 0.00109234 0.005775 -0.082 0.00525 -0 -0.082 0.00109234 0.004225 -0.082 0.0013 0.005 -0.082 -0.00159234 0.005775 -0.082 -0.0018 0.005 -0.082 -0.00575 -0 -0.082 -0.00159234 0.004225 -0.082 -0.001025 0.00365766 -0.082 -0.00025 0.00345 -0.082 0.000525 0.00365766 -0.058 -0.00575 0.0065 -0.058 -0.00575 -0 -0.058 0.00525 0.0065 -0.058 0.00525 -0 -0.0785 0.00175 0.01 -0.0785 0.00014051 0.01 -0.0615 0.00175 0.01 -0.07850036 -0.00024998 0.01 -0.0615 -0.00225 0.01 -0.0785 -0.00064051 0.01 -0.0785 -0.00225 0.01 -0.105 0.000525 0.00634234 -0.105 -0.00025 0.00655 -0.105 0.00109234 0.005775 -0.105 0.0013 0.005 -0.105 0.00109234 0.004225 -0.105 0.000525 0.00365766 -0.105 -0.00025 0.00345 -0.105 -0.001025 0.00365766 -0.105 -0.00159234 0.004225 -0.105 -0.0018 0.005 -0.105 -0.00159234 0.005775 -0.105 -0.001025 0.00634234 -0.082 -0.00025 0.00655 -0.105 -0.00025 0.005 -0.07904752 -0.00279752 0.00995691 -0.07958156 -0.00064051 0.0098287 -0.07958156 -0.00333156 0.0098287 -0.08008897 -0.00383897 0.00961852 -0.08055725 -0.00064051 0.00933156 -0.08055725 -0.00430725 0.00933156 -0.08097488 -0.00472487 0.00897487 -0.08133156 -0.00064051 0.00855725 -0.08133156 -0.00508156 0.00855725 -0.08161853 -0.00536852 0.00808897 -0.0818287 -0.00064051 0.00758156 -0.0818287 -0.0055787 0.00758156 -0.08195691 -0.00570691 0.00704752 -0.06095248 -0.00279752 0.00995691 -0.06041844 -0.00333156 0.0098287 -0.05991103 -0.00383897 0.00961852 -0.05944275 -0.00430725 0.00933156 -0.05902513 -0.00472487 0.00897487 -0.05866844 -0.00508156 0.00855725 -0.05838148 -0.00536852 0.00808897 -0.0581713 -0.0055787 0.00758156 -0.05804309 -0.00570691 0.00704752 -0.0795724 -0.00024998 0.00983177 -0.07958156 0.00014051 0.0098287 -0.08054139 -0.00024998 0.00934327 -0.08055725 0.00014051 0.00933156 -0.08131418 -0.00024998 0.00858144 -0.08133156 0.00014051 0.00855725 -0.08181648 -0.00024998 0.00761953 -0.0818287 0.00014051 0.00758156 -0.06095248 0.00229752 0.00995691 -0.06041844 0.00283156 0.0098287 -0.05991103 0.00333897 0.00961852 -0.05944275 0.00380725 0.00933156 -0.05902513 0.00422487 0.00897487 -0.05838148 0.00486852 0.00808897 -0.05866844 0.00458156 0.00855725 -0.05804309 0.00520691 0.00704752 -0.0581713 0.0050787 0.00758156 -0.08195691 0.00520691 0.00704752 -0.0818287 0.0050787 0.00758156 -0.08161853 0.00486852 0.00808897 -0.08133156 0.00458156 0.00855725 -0.08055725 0.00380725 0.00933156 -0.08097488 0.00422487 0.00897487 -0.07904752 0.00229752 0.00995691 -0.07958156 0.00283156 0.0098287 -0.08008897 0.00333897 0.00961852</float_array>
          <technique_common>
            <accessor source="#pos_0-array" count="1272" stride="3">
              <param name="X" type="float"/>
              <param name="Y" type="float"/>
              <param name="Z" type="float"/>
            </accessor>
          </technique_common>
        </source>
        <source id="norm_0">
          <float_array id="norm_0-array" count="1113">1 0 0 1 0 0 -0 1 -0 -1 -0 0 0 -1 0 -0 0 1 -0 0 1 0 -0 -1 0.00229 -0.25882 0.96592 0 -0.3794 0.92523 0 -0.70711 0.70711 0 -0.96593 0.25882 0 -0.96593 -0.25882 0 -0.70711 -0.70711 0 -0.25882 -0.96593 0 -0.25882 -0.96593 -0 0.25882 -0.96593 -0 0.25882 -0.96593 -0 0.70711 -0.70711 -0 0.96593 -0.25882 -0 0.96593 0.25882 -0 0.70711 0.70711 -0 0.3794 0.92523 0.00229 0.25882 0.96592 -0 0.127 0.9919 0 -0.127 0.9919 0.07846 0 0.99692 0.1564 -0.01997 0.98749 0.23345 0 0.97237 0.38268 0 0.92388 0.45395 -0.01347 0.89093 0.5225 0 0.85264 0.64945 0 0.76041 0.70707 -0.01055 0.70707 0.76041 0 0.64945 0.85264 0 0.5225 0.89097 -0.00911 0.45397 0.92388 0 0.38268 0.97237 0 0.23344 0.98765 -0.0085 0.15643 0.99692 0 0.07846 -0 0.07846 0.99692 -0 0.23345 0.97237 -0 0.38268 0.92388 -0 0.5225 0.85264 -0 0.64945 0.76041 -0 0.76041 0.64945 -0 0.85264 0.5225 -0 0.92388 0.38268 -0 0.97237 0.23345 -0 0.99692 0.07846 0.15502 -0.00014 0.98791 0.15643 -0.00411 0.98768 0.45016 0.00352 0.89294 0.45397 -0.00828 0.89098 0.70202 0.00715 0.71212 0.70705 -0.01234 0.70705 0.88637 0.01077 0.46285 0.89089 -0.01626 0.45393 0.98549 0.0144 0.1691 0.98749 -0.02003 0.1564 0.15643 0.00014 0.98769 0.15502 0.00415 0.9879 0.45399 -0.00363 0.891 0.45015 0.0085 0.89291 0.70709 -0.00751 0.70709 0.70198 0.01288 0.71208 0.89095 -0.01153 0.45396 0.88629 0.01726 0.46281 0.98757 -0.0157 0.15641 0.98536 0.02165 0.16908 -0.07846 0 0.99692 -0.23345 0 0.97237 -0.23345 0 0.97237 -0.38268 0 0.92388 -0.5225 0 0.85264 -0.64945 0 0.76041 -0.92388 0 0.38268 -0.85264 0 0.5225 -0.76041 0 0.64945 -0.76041 0 0.64945 -0.99692 -0 0.07846 -0.99692 -0 0.07846 -0.97237 -0 0.23344 -0.97237 0 0.23344 0.98765 0.0085 0.15643 0.89097 0.00911 0.45397 0.70711 0 0.70711 0.66031 0.0191 0.75075 0.15643 0 0.98769 0.11 0.03181 0.99342 0.45399 0 0.89101 0.4023 0.02321 0.91521 0 -0.07846 0.99692 0 -0.23345 0.97237 0 -0.38268 0.92388 0 -0.5225 0.85264 0 -0.64945 0.76041 0 -0.92388 0.38268 0 -0.85264 0.5225 0 -0.76041 0.64945 0 -0.99692 0.07846 0 -0.97237 0.23345 -0 1 -0 0 -1 0 0.70711 -0.70711 0 0.70711 0.70711 -0 -0.70711 0.70711 -0 -1 -0 -0 -0.70711 -0.70711 0 0 -0 -1 0 -0 -1 -0.70711 -0.70711 0 -0.70711 0.70711 -0 0.70711 0.70711 -0 0.70711 -0.70711 0 -0 0 1 -0 0 1 -0 1 -0 0 1 -0 -1 0 0 0 -1 0 1 -0 -0 0 0 1 0 0 1 -0 -0 -1 0.25882 0.00229 0.96592 0.3794 0 0.92523 0.70711 0 0.70711 0.96593 0 0.25882 0.96593 -0 -0.25882 0.70711 -0 -0.70711 0.25882 -0 -0.96593 0.25882 -0 -0.96593 -0.25882 -0 -0.96593 -0.25882 -0 -0.96593 -0.70711 -0 -0.70711 -0.96593 -0 -0.25882 -0.96593 0 0.25882 -0.70711 0 0.70711 -0.3794 0 0.92523 -0.25882 0.00229 0.96592 -0.127 0 0.9919 0.127 0 0.9919 0 0.07846 0.99692 0.01997 0.1564 0.98749 0 0.23345 0.97237 0 0.38268 0.92388 0.01347 0.45395 0.89093 0 0.5225 0.85264 0 0.64945 0.76041 0.01055 0.70707 0.70707 0 0.76041 0.64945 0 0.85264 0.5225 0.00911 0.89097 0.45397 0 0.92388 0.38268 0 0.97237 0.23344 0.0085 0.98765 0.15643 0 0.99692 0.07846 -0.07846 0 0.99692 -0.23345 0 0.97237 -0.38268 0 0.92388 -0.5225 0 0.85264 -0.64945 0 0.76041 -0.76041 0 0.64945 -0.76041 0 0.64945 -0.85264 0 0.5225 -0.92388 0 0.38268 -0.92388 0 0.38268 -0.97237 0 0.23345 -0.99692 0 0.07846 0.00014 0.15502 0.98791 0.00411 0.15643 0.98768 -0.00352 0.45016 0.89294 0.00828 0.45397 0.89098 -0.00715 0.70202 0.71212 0.01234 0.70705 0.70705 -0.01077 0.88637 0.46285 0.01626 0.89089 0.45393 -0.0144 0.98549 0.1691 0.02003 0.98749 0.1564 -0.00014 0.15643 0.98769 -0.00415 0.15502 0.9879 0.00363 0.45399 0.891 -0.0085 0.45015 0.89291 0.00751 0.70709 0.70709 -0.01288 0.70198 0.71208 0.01153 0.89095 0.45396 -0.01726 0.88629 0.46281 0.0157 0.98757 0.15641 -0.02165 0.98536 0.16908 0 -0.07846 0.99692 0 -0.23345 0.97237 0 -0.38268 0.92388 0 -0.5225 0.85264 0 -0.64945 0.76041 0 -0.92388 0.38268 0 -0.85264 0.5225 0 -0.76041 0.64945 0 -0.99692 0.07846 0 -0.97237 0.23344 -0.0085 0.98765 0.15643 -0.00911 0.89097 0.45397 0 0.70711 0.70711 -0.0191 0.66031 0.75075 0 0.15643 0.98769 -0.03181 0.11 0.99342 0 0.45399 0.89101 -0.02321 0.4023 0.91521 0.07846 0 0.99692 0.23345 0 0.97237 0.38268 0 0.92388 0.5225 0 0.85264 0.64945 0 0.76041 0.92388 0 0.38268 0.85264 0 0.5225 0.85264 0 0.5225 0.76041 0 0.64945 0.76041 0 0.64945 0.99692 0 0.07846 0.99692 0 0.07846 0.97237 0 0.23345 0.92388 0 0.38268 -0 -1 0 -0 -1 0 1 -0 -0 0 1 -0 -1 0 0 0 0 1 0 0 1 -0 -0 -1 -0.25882 -0.00229 0.96592 -0.3794 0 0.92523 -0.70711 0 0.70711 -0.96593 0 0.25882 -0.96593 0 -0.25882 -0.70711 -0 -0.70711 -0.25882 -0 -0.96593 -0.25882 -0 -0.96593 0.25882 -0 -0.96593 0.70711 -0 -0.70711 0.96593 -0 -0.25882 0.96593 -0 0.25882 0.70711 0 0.70711 0.3794 0 0.92523 0.25882 -0.00229 0.96592 0.127 0 0.9919 -0.127 0 0.9919 0 -0.07846 0.99692 -0.01997 -0.1564 0.98749 0 -0.23345 0.97237 0 -0.38268 0.92388 -0.01347 -0.45395 0.89093 0 -0.5225 0.85264 0 -0.64945 0.76041 -0.01055 -0.70707 0.70707 0 -0.76041 0.64945 0 -0.85264 0.5225 -0.00911 -0.89097 0.45397 0 -0.92388 0.38268 -0 -0.97237 0.23344 -0.0085 -0.98765 0.15643 -0 -0.99692 0.07846 0.07846 0 0.99692 0.23345 0 0.97237 0.38268 0 0.92388 0.5225 0 0.85264 0.64945 0 0.76041 0.76041 0 0.64945 0.76041 0 0.64945 0.85264 0 0.5225 0.92388 0 0.38268 0.97237 -0 0.23345 0.99692 -0 0.07846 -0.00014 -0.15502 0.98791 -0.00411 -0.15643 0.98768 0.00352 -0.45016 0.89294 -0.00828 -0.45397 0.89098 0.00715 -0.70202 0.71212 -0.01234 -0.70705 0.70705 0.01077 -0.88637 0.46285 -0.01626 -0.89089 0.45393 0.0144 -0.98549 0.1691 -0.02003 -0.98749 0.1564 0.00014 -0.15643 0.98769 0.00415 -0.15502 0.9879 -0.00363 -0.45399 0.891 0.0085 -0.45015 0.89291 -0.00751 -0.70709 0.70709 0.01288 -0.70198 0.71208 -0.01153 -0.89095 0.45396 0.01726 -0.88629 0.46281 -0.0157 -0.98757 0.15641 0.02165 -0.98536 0.16908 0 0.07846 0.99692 0 0.23345 0.97237 0 0.38268 0.92388 0 0.5225 0.85264 0 0.64945 0.76041 0 0.92388 0.38268 0 0.85264 0.5225 0 0.76041 0.64945 0 0.99692 0.07846 0 0.97237 0.23344 0.0085 -0.98765 0.15643 0.00911 -0.89097 0.45397 0 -0.70711 0.70711 0.0191 -0.66031 0.75075 0 -0.15643 0.98769 0.03181 -0.11 0.99342 0 -0.45399 0.89101 0.02321 -0.4023 0.91521 -0.07846 0 0.99692 -0.23345 0 0.97237 -0.38268 0 0.92388 -0.5225 0 0.85264 -0.64945 0 0.76041 -0.92388 0 0.38268 -0.85264 0 0.5225 -0.85264 0 0.5225 -0.76041 0 0.64945 -0.76041 0 0.64945 -0.99692 0 0.07846 -0.99692 0 0.07846 -0.97237 0 0.23345 -0.00229 0.25882 0.96592 -0 0.25882 -0.96593 0 -0.25882 -0.96593 -0.00229 -0.25882 0.96592 -0.07846 0 0.99692 -0.1564 0.01997 0.98749 -0.45395 0.01347 0.89093 -0.5225 0 0.85264 -0.70707 0.01055 0.70707 -0.89097 0.00911 0.45397 -0.98765 0.0085 0.15643 -0.15502 0.00014 0.98791 -0.15643 0.00411 0.98768 -0.45016 -0.00352 0.89294 -0.45397 0.00828 0.89098 -0.70202 -0.00715 0.71212 -0.70705 0.01234 0.70705 -0.88637 -0.01077 0.46285 -0.89089 0.01626 0.45393 -0.98549 -0.0144 0.1691 -0.98749 0.02003 0.1564 -0.15643 -0.00014 0.98769 -0.15502 -0.00415 0.9879 -0.45399 0.00363 0.891 -0.45015 -0.0085 0.89291 -0.70709 0.00751 0.70709 -0.70198 -0.01288 0.71208 -0.89095 0.01153 0.45396 -0.88629 -0.01726 0.46281 -0.98757 0.0157 0.15641 -0.98536 -0.02165 0.16908 0.07846 0 0.99692 0.23345 0 0.97237 0.5225 0 0.85264 0.76041 0 0.64945 0.99692 0 0.07846 0.97237 0 0.23344 0.92388 0 0.38268 -0.98765 -0.0085 0.15643 -0.89097 -0.00911 0.45397 -0.70711 0 0.70711 -0.66031 -0.0191 0.75075 -0.15643 0 0.98769 -0.11 -0.03181 0.99342 -0.45399 0 0.89101 -0.4023 -0.02321 0.91521</float_array>
          <technique_common>
            <accessor source="#norm_0-array" count="1113" stride="3">
              <param name="X" type="float"/>
              <param name="Y" type="float"/>
              <param name="Z" type="float"/>
            </accessor>
          </technique_common>
        </source>
        <source id="uvs_0">
          <float_array id="uvs_0-array" count="0"></float_array>
          <technique_common>
            <accessor source="#uvs_0-array" count="0" stride="2">
              <param name="S" type="float"/>
              <param name="T" type="float"/>
            </accessor>
          </technique_common>
        </source>
        <vertices id="vert_0">
          <input semantic="POSITION" source="#pos_0"/>
        </vertices>
        <triangles count="840" material="mat_0">
          <input semantic="VERTEX" source="#vert_0" offset="0"/>
          <input semantic="NORMAL" source="#norm_0" offset="1"/>
          <p>0 0 1 0 2 0 3 0 4 0 5 0 5 0 4 0 6 0 7 1 8 1 4 1 4 1 8 1 9 1 4 0 9 0 6 0 2 0 10 0 0 0 0 0 10 0 11 0 0 0 11 0 12 0 12 0 11 0 13 0 13 0 14 0 12 0 12 0 14 0 15 0 12 0 15 0 7 0 7 0 15 0 16 0 7 0 16 0 8 0 0 2 12 2 17 2 17 2 12 2 18 2 17 3 18 3 19 3 19 3 18 3 20 3 19 4 20 4 4 4 4 4 20 4 7 4 21 5 22 5 23 5 23 5 22 5 24 5 23 6 24 6 25 6 25 6 24 6 26 6 25 5 26 5 27 5 20 7 18 7 7 7 7 7 18 7 12 7 28 8 29 8 3 8 3 9 5 9 28 9 28 10 5 10 6 10 28 10 6 10 30 10 30 11 6 11 9 11 30 11 9 11 31 11 31 12 9 12 8 12 31 12 8 12 32 12 32 13 8 13 16 13 32 13 16 13 33 13 33 14 16 14 15 14 33 15 15 15 34 15 34 16 15 16 14 16 34 17 14 17 35 17 35 18 14 18 13 18 35 18 13 18 36 18 36 19 13 19 11 19 36 19 11 19 37 19 37 20 11 20 10 20 37 20 10 20 38 20 38 21 10 21 2 21 38 21 2 21 39 21 39 22 2 22 1 22 39 23 1 23 29 23 29 24 1 24 40 24 29 25 40 25 3 25 35 1 36 1 41 1 41 0 36 0 37 0 41 0 37 0 38 0 32 1 33 1 41 1 41 0 33 0 34 0 41 0 34 0 35 0 28 0 30 0 41 0 41 0 30 0 31 0 41 0 31 0 32 0 38 0 39 0 41 0 41 0 39 0 29 0 41 0 29 0 28 0 27 26 26 26 42 26 42 27 26 27 43 27 42 28 43 28 44 28 44 29 43 29 45 29 45 30 43 30 46 30 45 31 46 31 47 31 47 32 46 32 48 32 48 33 46 33 49 33 48 34 49 34 50 34 50 35 49 35 51 35 51 36 49 36 52 36 51 37 52 37 53 37 53 38 52 38 54 38 54 39 52 39 1 39 54 40 1 40 0 40 25 41 27 41 55 41 55 41 27 41 42 41 55 42 42 42 56 42 56 42 42 42 44 42 56 43 44 43 57 43 57 43 44 43 45 43 57 44 45 44 58 44 58 44 45 44 47 44 58 45 47 45 59 45 59 45 47 45 48 45 59 46 48 46 60 46 60 46 48 46 50 46 60 47 50 47 61 47 61 47 50 47 51 47 61 48 51 48 62 48 62 48 51 48 53 48 62 49 53 49 63 49 63 49 53 49 54 49 63 50 54 50 17 50 17 50 54 50 0 50 24 51 22 51 64 51 64 52 22 52 65 52 64 53 65 53 66 53 66 54 65 54 67 54 66 55 67 55 68 55 68 56 67 56 69 56 68 57 69 57 70 57 70 58 69 58 71 58 70 59 71 59 40 59 40 60 71 60 3 60 26 61 24 61 43 61 43 62 24 62 64 62 43 63 64 63 46 63 46 64 64 64 66 64 46 65 66 65 49 65 49 66 66 66 68 66 49 67 68 67 52 67 52 68 68 68 70 68 52 69 70 69 1 69 1 70 70 70 40 70 23 71 25 71 72 71 72 71 25 71 55 71 72 72 55 72 73 72 73 73 55 73 56 73 73 74 56 74 74 74 74 74 56 74 57 74 74 75 57 75 75 75 75 75 57 75 58 75 75 76 58 76 76 76 62 77 77 77 61 77 61 78 77 78 78 78 61 78 78 78 60 78 60 79 78 79 76 79 60 80 76 80 59 80 59 76 76 76 58 76 17 81 19 81 63 81 63 82 19 82 79 82 63 83 79 83 62 83 62 84 79 84 80 84 62 77 80 77 77 77 4 40 3 40 81 40 81 85 3 85 71 85 81 38 71 38 82 38 82 37 71 37 83 37 83 86 71 86 69 86 83 35 69 35 84 35 67 87 85 87 69 87 69 88 85 88 86 88 69 34 86 34 84 34 65 89 22 89 21 89 21 90 87 90 65 90 65 28 87 28 88 28 65 91 88 91 67 91 67 92 88 92 89 92 67 31 89 31 85 31 21 93 23 93 87 93 87 93 23 93 72 93 87 94 72 94 88 94 88 94 72 94 73 94 88 95 73 95 89 95 89 95 73 95 74 95 89 96 74 96 85 96 85 96 74 96 75 96 85 97 75 97 86 97 80 98 83 98 77 98 77 99 83 99 84 99 77 99 84 99 78 99 78 100 84 100 86 100 78 100 86 100 76 100 76 97 86 97 75 97 19 101 4 101 79 101 79 101 4 101 81 101 79 102 81 102 80 102 80 102 81 102 82 102 80 98 82 98 83 98 90 103 91 103 92 103 92 103 91 103 93 103 92 103 93 103 94 103 94 103 93 103 95 103 95 103 93 103 96 103 95 103 96 103 90 103 90 103 96 103 97 103 90 103 97 103 91 103 98 104 99 104 100 104 99 104 98 104 101 104 101 104 98 104 102 104 101 104 102 104 103 104 103 104 102 104 104 104 103 104 104 104 100 104 100 104 104 104 105 104 100 104 105 104 98 104 106 104 107 104 108 104 108 104 107 104 109 104 108 104 109 104 110 104 110 104 109 104 111 104 110 104 111 104 112 104 112 104 111 104 113 104 114 103 115 103 116 103 116 103 115 103 117 103 116 103 117 103 118 103 118 103 117 103 119 103 118 103 119 103 120 103 120 103 119 103 121 103 122 105 104 105 123 105 123 105 104 105 102 105 123 0 124 0 125 0 124 0 123 0 126 0 126 1 123 1 127 1 126 0 127 0 128 0 128 1 127 1 129 1 128 0 129 0 125 0 125 1 129 1 122 1 125 0 122 0 123 0 97 106 129 106 91 106 91 106 129 106 127 106 130 107 96 107 131 107 131 107 96 107 93 107 132 108 130 108 131 108 130 108 132 108 133 108 133 3 132 3 134 3 133 3 134 3 135 3 135 3 134 3 136 3 135 108 136 108 131 108 131 3 136 3 137 3 131 3 137 3 132 3 105 109 133 109 98 109 98 109 133 109 135 109 98 110 135 110 131 110 131 110 93 110 91 110 102 111 98 111 123 111 123 110 98 110 131 110 123 110 131 110 127 110 127 110 131 110 91 110 138 112 109 112 139 112 139 112 109 112 107 112 140 3 141 3 142 3 142 3 141 3 143 3 142 3 143 3 144 3 144 108 143 108 138 108 144 3 138 3 145 3 145 3 138 3 139 3 119 113 143 113 121 113 121 113 143 113 141 113 146 114 117 114 147 114 147 114 117 114 115 114 148 0 149 0 150 0 150 0 149 0 151 0 150 0 151 0 152 0 152 1 151 1 146 1 152 0 146 0 153 0 153 0 146 0 147 0 111 115 151 115 113 115 113 115 151 115 149 115 145 116 139 116 107 116 153 116 147 116 115 116 92 116 94 116 106 116 106 116 94 116 112 116 99 116 101 116 114 116 114 116 101 116 120 116 137 116 136 116 148 116 148 116 136 116 153 116 124 116 126 116 140 116 140 116 126 116 145 116 113 116 149 116 112 116 112 117 149 117 148 117 112 116 148 116 106 116 106 116 148 116 153 116 106 116 153 116 114 116 114 117 153 117 115 117 121 116 141 116 120 116 120 116 141 116 140 116 120 117 140 117 114 117 114 116 140 116 145 116 114 117 145 117 106 117 106 116 145 116 107 116 153 103 136 103 152 103 152 103 136 103 134 103 150 104 132 104 148 104 148 104 132 104 137 104 152 110 134 110 150 110 150 110 134 110 132 110 128 110 125 110 144 110 144 110 125 110 142 110 126 104 128 104 145 104 145 104 128 104 144 104 125 103 124 103 142 103 142 103 124 103 140 103 116 110 118 110 100 110 100 110 118 110 103 110 118 3 120 3 103 3 103 3 120 3 101 3 114 0 116 0 99 0 99 0 116 0 100 0 95 110 90 110 110 110 110 110 90 110 108 110 94 0 95 0 112 0 112 0 95 0 110 0 90 3 92 3 108 3 108 3 92 3 106 3 111 111 109 111 151 111 151 110 109 110 138 110 151 110 138 110 146 110 143 110 119 110 138 110 138 110 119 110 117 110 138 110 117 110 146 110 96 116 130 116 133 116 133 117 105 117 104 117 97 116 96 116 129 116 129 116 96 116 133 116 129 116 133 116 122 116 122 116 133 116 104 116 154 118 155 118 156 118 157 118 158 118 159 118 159 118 158 118 160 118 161 119 162 119 158 119 158 119 162 119 163 119 158 118 163 118 160 118 156 118 164 118 154 118 154 118 164 118 165 118 154 118 165 118 166 118 166 118 165 118 167 118 167 118 168 118 166 118 166 118 168 118 169 118 166 118 169 118 161 118 161 118 169 118 170 118 161 118 170 118 162 118 154 120 166 120 171 120 171 120 166 120 172 120 171 121 172 121 173 121 173 121 172 121 174 121 173 122 174 122 158 122 158 122 174 122 161 122 175 123 176 123 177 123 177 123 176 123 178 123 177 124 178 124 179 124 179 124 178 124 180 124 179 123 180 123 181 123 174 125 172 125 161 125 161 125 172 125 166 125 182 126 183 126 157 126 157 127 159 127 182 127 182 128 159 128 160 128 182 128 160 128 184 128 184 129 160 129 163 129 184 129 163 129 185 129 185 130 163 130 162 130 185 130 162 130 186 130 186 131 162 131 170 131 186 131 170 131 187 131 187 132 170 132 169 132 187 133 169 133 188 133 188 134 169 134 168 134 188 135 168 135 189 135 189 136 168 136 167 136 189 136 167 136 190 136 190 137 167 137 165 137 190 137 165 137 191 137 191 138 165 138 164 138 191 138 164 138 192 138 192 139 164 139 156 139 192 139 156 139 193 139 193 140 156 140 155 140 193 141 155 141 183 141 183 142 155 142 194 142 183 143 194 143 157 143 189 119 190 119 195 119 195 118 190 118 191 118 195 118 191 118 192 118 186 119 187 119 195 119 195 118 187 118 188 118 195 118 188 118 189 118 182 118 184 118 195 118 195 118 184 118 185 118 195 118 185 118 186 118 192 118 193 118 195 118 195 118 193 118 183 118 195 118 183 118 182 118 181 144 180 144 196 144 196 145 180 145 197 145 196 146 197 146 198 146 198 147 197 147 199 147 199 148 197 148 200 148 199 149 200 149 201 149 201 150 200 150 202 150 202 151 200 151 203 151 202 152 203 152 204 152 204 153 203 153 205 153 205 154 203 154 206 154 205 155 206 155 207 155 207 156 206 156 208 156 208 157 206 157 155 157 208 158 155 158 154 158 179 159 181 159 209 159 209 159 181 159 196 159 209 160 196 160 210 160 210 160 196 160 198 160 210 161 198 161 211 161 211 161 198 161 199 161 211 162 199 162 212 162 212 162 199 162 201 162 212 163 201 163 213 163 213 163 201 163 202 163 213 164 202 164 214 164 214 165 202 165 204 165 214 166 204 166 215 166 215 166 204 166 205 166 215 167 205 167 216 167 216 168 205 168 207 168 216 169 207 169 217 169 217 169 207 169 208 169 217 170 208 170 171 170 171 170 208 170 154 170 178 171 176 171 218 171 218 172 176 172 219 172 218 173 219 173 220 173 220 174 219 174 221 174 220 175 221 175 222 175 222 176 221 176 223 176 222 177 223 177 224 177 224 178 223 178 225 178 224 179 225 179 194 179 194 180 225 180 157 180 180 181 178 181 197 181 197 182 178 182 218 182 197 183 218 183 200 183 200 184 218 184 220 184 200 185 220 185 203 185 203 186 220 186 222 186 203 187 222 187 206 187 206 188 222 188 224 188 206 189 224 189 155 189 155 190 224 190 194 190 177 191 179 191 226 191 226 191 179 191 209 191 226 192 209 192 227 192 227 192 209 192 210 192 227 193 210 193 228 193 228 193 210 193 211 193 228 194 211 194 229 194 229 194 211 194 212 194 229 195 212 195 230 195 216 196 231 196 215 196 215 197 231 197 232 197 215 197 232 197 214 197 214 198 232 198 230 198 214 198 230 198 213 198 213 195 230 195 212 195 171 199 173 199 217 199 217 199 173 199 233 199 217 200 233 200 216 200 216 200 233 200 234 200 216 196 234 196 231 196 158 158 157 158 235 158 235 201 157 201 225 201 235 156 225 156 236 156 236 155 225 155 237 155 237 202 225 202 223 202 237 153 223 153 238 153 221 203 239 203 223 203 223 204 239 204 240 204 223 152 240 152 238 152 219 205 176 205 175 205 175 206 241 206 219 206 219 146 241 146 242 146 219 207 242 207 221 207 221 208 242 208 243 208 221 149 243 149 239 149 175 209 177 209 241 209 241 209 177 209 226 209 241 210 226 210 242 210 242 210 226 210 227 210 242 211 227 211 243 211 243 211 227 211 228 211 243 212 228 212 239 212 239 212 228 212 229 212 239 213 229 213 240 213 234 214 237 214 231 214 231 215 237 215 238 215 231 216 238 216 232 216 232 217 238 217 240 217 232 218 240 218 230 218 230 213 240 213 229 213 173 219 158 219 233 219 233 220 158 220 235 220 233 221 235 221 234 221 234 221 235 221 236 221 234 222 236 222 237 222 244 223 245 223 246 223 247 223 248 223 249 223 249 223 248 223 250 223 251 224 252 224 248 224 248 224 252 224 253 224 248 223 253 223 250 223 246 223 254 223 244 223 244 223 254 223 255 223 244 223 255 223 256 223 256 223 255 223 257 223 257 223 258 223 256 223 256 223 258 223 259 223 256 223 259 223 251 223 251 223 259 223 260 223 251 223 260 223 252 223 244 225 256 225 261 225 261 225 256 225 262 225 261 226 262 226 263 226 263 226 262 226 264 226 263 227 264 227 248 227 248 227 264 227 251 227 265 228 266 228 267 228 267 228 266 228 268 228 267 229 268 229 269 229 269 229 268 229 270 229 269 228 270 228 271 228 264 230 262 230 251 230 251 230 262 230 256 230 272 231 273 231 247 231 247 232 249 232 272 232 272 233 249 233 250 233 272 233 250 233 274 233 274 234 250 234 253 234 274 234 253 234 275 234 275 235 253 235 252 235 275 235 252 235 276 235 276 236 252 236 260 236 276 236 260 236 277 236 277 237 260 237 259 237 277 238 259 238 278 238 278 132 259 132 258 132 278 239 258 239 279 239 279 240 258 240 257 240 279 240 257 240 280 240 280 241 257 241 255 241 280 241 255 241 281 241 281 242 255 242 254 242 281 242 254 242 282 242 282 243 254 243 246 243 282 243 246 243 283 243 283 244 246 244 245 244 283 245 245 245 273 245 273 246 245 246 284 246 273 247 284 247 247 247 279 224 280 224 285 224 285 223 280 223 281 223 285 223 281 223 282 223 276 224 277 224 285 224 285 223 277 223 278 223 285 223 278 223 279 223 272 223 274 223 285 223 285 223 274 223 275 223 285 223 275 223 276 223 282 223 283 223 285 223 285 223 283 223 273 223 285 223 273 223 272 223 271 248 270 248 286 248 286 249 270 249 287 249 286 250 287 250 288 250 288 251 287 251 289 251 289 252 287 252 290 252 289 253 290 253 291 253 291 254 290 254 292 254 292 255 290 255 293 255 292 256 293 256 294 256 294 257 293 257 295 257 295 258 293 258 296 258 295 259 296 259 297 259 297 260 296 260 298 260 298 261 296 261 245 261 298 262 245 262 244 262 269 263 271 263 299 263 299 263 271 263 286 263 299 264 286 264 300 264 300 264 286 264 288 264 300 265 288 265 301 265 301 265 288 265 289 265 301 266 289 266 302 266 302 266 289 266 291 266 302 267 291 267 303 267 303 267 291 267 292 267 303 268 292 268 304 268 304 269 292 269 294 269 304 270 294 270 305 270 305 270 294 270 295 270 305 271 295 271 306 271 306 271 295 271 297 271 306 272 297 272 307 272 307 272 297 272 298 272 307 273 298 273 261 273 261 273 298 273 244 273 268 274 266 274 308 274 308 275 266 275 309 275 308 276 309 276 310 276 310 277 309 277 311 277 310 278 311 278 312 278 312 279 311 279 313 279 312 280 313 280 314 280 314 281 313 281 315 281 314 282 315 282 284 282 284 283 315 283 247 283 270 284 268 284 287 284 287 285 268 285 308 285 287 286 308 286 290 286 290 287 308 287 310 287 290 288 310 288 293 288 293 289 310 289 312 289 293 290 312 290 296 290 296 291 312 291 314 291 296 292 314 292 245 292 245 293 314 293 284 293 267 294 269 294 316 294 316 294 269 294 299 294 316 295 299 295 317 295 317 295 299 295 300 295 317 296 300 296 318 296 318 296 300 296 301 296 318 297 301 297 319 297 319 297 301 297 302 297 319 298 302 298 320 298 306 299 321 299 305 299 305 300 321 300 322 300 305 300 322 300 304 300 304 301 322 301 320 301 304 301 320 301 303 301 303 298 320 298 302 298 261 302 263 302 307 302 307 302 263 302 323 302 307 303 323 303 306 303 306 303 323 303 324 303 306 299 324 299 321 299 248 262 247 262 325 262 325 304 247 304 315 304 325 260 315 260 326 260 326 259 315 259 327 259 327 305 315 305 313 305 327 257 313 257 328 257 311 306 329 306 313 306 313 307 329 307 330 307 313 256 330 256 328 256 309 308 266 308 265 308 265 309 331 309 309 309 309 250 331 250 332 250 309 310 332 310 311 310 311 311 332 311 333 311 311 253 333 253 329 253 265 312 267 312 331 312 331 312 267 312 316 312 331 313 316 313 332 313 332 313 316 313 317 313 332 314 317 314 333 314 333 314 317 314 318 314 333 315 318 315 329 315 329 315 318 315 319 315 329 316 319 316 330 316 324 317 327 317 321 317 321 318 327 318 328 318 321 319 328 319 322 319 322 320 328 320 330 320 322 321 330 321 320 321 320 316 330 316 319 316 263 322 248 322 323 322 323 323 248 323 325 323 323 324 325 324 324 324 324 324 325 324 326 324 324 317 326 317 327 317 334 3 335 3 336 3 337 3 338 3 339 3 339 3 338 3 340 3 341 108 342 108 338 108 338 108 342 108 343 108 338 3 343 3 340 3 336 3 344 3 334 3 334 3 344 3 345 3 334 3 345 3 346 3 346 3 345 3 347 3 347 3 348 3 346 3 346 3 348 3 349 3 346 3 349 3 341 3 341 3 349 3 350 3 341 3 350 3 342 3 334 4 346 4 351 4 351 4 346 4 352 4 351 0 352 0 353 0 353 0 352 0 354 0 353 2 354 2 338 2 338 2 354 2 341 2 355 5 356 5 357 5 357 5 356 5 358 5 357 6 358 6 359 6 359 6 358 6 360 6 359 5 360 5 361 5 354 7 352 7 341 7 341 7 352 7 346 7 362 325 363 325 337 325 337 22 339 22 362 22 362 21 339 21 340 21 362 21 340 21 364 21 364 20 340 20 343 20 364 20 343 20 365 20 365 19 343 19 342 19 365 19 342 19 366 19 366 18 342 18 350 18 366 18 350 18 367 18 367 17 350 17 349 17 367 326 349 326 368 326 368 327 349 327 348 327 368 14 348 14 369 14 369 13 348 13 347 13 369 13 347 13 370 13 370 12 347 12 345 12 370 12 345 12 371 12 371 11 345 11 344 11 371 11 344 11 372 11 372 10 344 10 336 10 372 10 336 10 373 10 373 9 336 9 335 9 373 328 335 328 363 328 363 25 335 25 374 25 363 24 374 24 337 24 369 108 370 108 375 108 375 3 370 3 371 3 375 3 371 3 372 3 366 108 367 108 375 108 375 3 367 3 368 3 375 3 368 3 369 3 362 3 364 3 375 3 375 3 364 3 365 3 375 3 365 3 366 3 372 3 373 3 375 3 375 3 373 3 363 3 375 3 363 3 362 3 361 329 360 329 376 329 376 330 360 330 377 330 376 73 377 73 378 73 378 74 377 74 379 74 379 331 377 331 380 331 379 332 380 332 381 332 381 76 380 76 382 76 382 333 380 333 383 333 382 79 383 79 384 79 384 78 383 78 385 78 385 334 383 334 386 334 385 77 386 77 387 77 387 84 386 84 388 84 388 335 386 335 335 335 388 81 335 81 334 81 359 93 361 93 389 93 389 93 361 93 376 93 389 94 376 94 390 94 390 94 376 94 378 94 390 95 378 95 391 95 391 95 378 95 379 95 391 96 379 96 392 96 392 96 379 96 381 96 392 97 381 97 393 97 393 97 381 97 382 97 393 100 382 100 394 100 394 100 382 100 384 100 394 99 384 99 395 99 395 99 384 99 385 99 395 98 385 98 396 98 396 98 385 98 387 98 396 102 387 102 397 102 397 102 387 102 388 102 397 101 388 101 351 101 351 101 388 101 334 101 358 336 356 336 398 336 398 337 356 337 399 337 398 338 399 338 400 338 400 339 399 339 401 339 400 340 401 340 402 340 402 341 401 341 403 341 402 342 403 342 404 342 404 343 403 343 405 343 404 344 405 344 374 344 374 345 405 345 337 345 360 346 358 346 377 346 377 347 358 347 398 347 377 348 398 348 380 348 380 349 398 349 400 349 380 350 400 350 383 350 383 351 400 351 402 351 383 352 402 352 386 352 386 353 402 353 404 353 386 354 404 354 335 354 335 355 404 355 374 355 357 356 359 356 406 356 406 356 359 356 389 356 406 357 389 357 407 357 407 28 389 28 390 28 407 29 390 29 408 29 408 29 390 29 391 29 408 358 391 358 409 358 409 358 391 358 392 358 409 32 392 32 410 32 396 37 411 37 395 37 395 35 411 35 412 35 395 35 412 35 394 35 394 34 412 34 410 34 394 359 410 359 393 359 393 32 410 32 392 32 351 40 353 40 397 40 397 360 353 360 413 360 397 361 413 361 396 361 396 38 413 38 414 38 396 362 414 362 411 362 338 81 337 81 415 81 415 363 337 363 405 363 415 84 405 84 416 84 416 77 405 77 417 77 417 364 405 364 403 364 417 78 403 78 418 78 401 365 419 365 403 365 403 366 419 366 420 366 403 79 420 79 418 79 399 367 356 367 355 367 355 368 421 368 399 368 399 73 421 73 422 73 399 369 422 369 401 369 401 370 422 370 423 370 401 332 423 332 419 332 355 41 357 41 421 41 421 41 357 41 406 41 421 42 406 42 422 42 422 42 406 42 407 42 422 43 407 43 423 43 423 43 407 43 408 43 423 44 408 44 419 44 419 44 408 44 409 44 419 45 409 45 420 45 414 48 417 48 411 48 411 47 417 47 418 47 411 47 418 47 412 47 412 46 418 46 420 46 412 46 420 46 410 46 410 45 420 45 409 45 353 50 338 50 413 50 413 50 338 50 415 50 413 49 415 49 414 49 414 49 415 49 416 49 414 48 416 48 417 48</p>
        </triangles>
      </mesh>
    </geometry>
  </library_geometries>
  <library_visual_scenes>
    <visual_scene id="DefaultScene">
      <node id="node_142727dc_f8b3_45e7_a061_4c96c360fbfe" type="NODE">
        <matrix>1 0 0 0 0 1 0 0 0 0 1 0 0 0 0 1</matrix>
        <node id="node_2c96c24e_dfea_4d31_af99_898b06505d2e" type="NODE">
          <matrix>1 0 0 0 0 1 0 0 0 0 1 0 0 0 0 1</matrix>
          <node id="node_2c96c24e_dfea_4d31_af99_898b06505d2e_mesh0" type="NODE">
            <matrix>1 0 0 0 0 1 0 0 0 0 1 0 0 0 0 1</matrix>
            <instance_geometry url="#geometry_1671293a_c134_41be_9058_cd0e63bae1ef">
              <bind_material>
                <technique_common>
                  <instance_material symbol="mat_0" target="#mat_0"/>
                </technique_common>
              </bind_material>
            </instance_geometry>
          </node>
        </node>
      </node>
    </visual_scene>
  </library_visual_scenes>
  <scene>
    <instance_visual_scene url="#DefaultScene"/>
  </scene>
</COLLADA>
