<?xml version="1.0" encoding="UTF-8"?>
<COLLADA xmlns="http://www.collada.org/2005/11/COLLADASchema" version="1.4.1">
<!--
# File generated by ImageToStl.com - Free Image and 3D model conversion tools
-->
  <asset>
    <contributor>
      <author>ImageToStl.com</author>
      <authoring_tool>ImageToStl.com</authoring_tool>
    </contributor>
    <created>2025-05-13T04:40:12</created>
    <modified>2025-05-13T04:40:12</modified>
    <up_axis>Z_UP</up_axis>
  </asset>
  <library_effects>
    <effect id="effect_0">
        <profile_COMMON>
          <technique sid="common">
            <phong>
              <diffuse>
                <color>0.85 0.85 0.85 1</color>
              </diffuse>
              <specular>
                <color>0.05 0.05 0.05 1</color>
              </specular>
              <shininess>
                <float>64</float>
              </shininess>
            </phong>
          </technique>
        </profile_COMMON>
    </effect>
  </library_effects>
  <library_materials>
    <material id="mat_0">
      <instance_effect url="#effect_0"/>
    </material>
  </library_materials>
  <library_geometries>
    <geometry id="geometry_220ed6c7_fca3_49cd_bc75_5344f8cf82d6">
      <mesh>
        <source id="pos_0">
          <float_array id="pos_0-array" count="1272">0.00575 -0.082 0.0065 0.00064051 -0.082 0.0065 0.001025 -0.082 0.00634234 -0.00014051 -0.082 0.0065 -0.00525 -0.082 0.0065 -0.000525 -0.082 0.00634234 -0.00109234 -0.082 0.005775 -0.00525 -0.082 -0 -0.00109234 -0.082 0.004225 -0.0013 -0.082 0.005 0.00159234 -0.082 0.005775 0.0018 -0.082 0.005 0.00575 -0.082 -0 0.00159234 -0.082 0.004225 0.001025 -0.082 0.00365766 0.00025 -0.082 0.00345 -0.000525 -0.082 0.00365766 0.00575 -0.058 0.0065 0.00575 -0.058 -0 -0.00525 -0.058 0.0065 -0.00525 -0.058 -0 -0.00175 -0.0785 0.01 -0.00014051 -0.0785 0.01 -0.00175 -0.0615 0.01 0.00024998 -0.07850036 0.01 0.00225 -0.0615 0.01 0.00064051 -0.0785 0.01 0.00225 -0.0785 0.01 -0.000525 -0.105 0.00634234 0.00025 -0.105 0.00655 -0.00109234 -0.105 0.005775 -0.0013 -0.105 0.005 -0.00109234 -0.105 0.004225 -0.000525 -0.105 0.00365766 0.00025 -0.105 0.00345 0.001025 -0.105 0.00365766 0.00159234 -0.105 0.004225 0.0018 -0.105 0.005 0.00159234 -0.105 0.005775 0.001025 -0.105 0.00634234 0.00025 -0.082 0.00655 0.00025 -0.105 0.005 0.00279752 -0.07904752 0.00995691 0.00064051 -0.07958156 0.0098287 0.00333156 -0.07958156 0.0098287 0.00383897 -0.08008897 0.00961852 0.00064051 -0.08055725 0.00933156 0.00430725 -0.08055725 0.00933156 0.00472487 -0.08097488 0.00897487 0.00064051 -0.08133156 0.00855725 0.00508156 -0.08133156 0.00855725 0.00536852 -0.08161853 0.00808897 0.00064051 -0.0818287 0.00758156 0.0055787 -0.0818287 0.00758156 0.00570691 -0.08195691 0.00704752 0.00279752 -0.06095248 0.00995691 0.00333156 -0.06041844 0.0098287 0.00383897 -0.05991103 0.00961852 0.00430725 -0.05944275 0.00933156 0.00472487 -0.05902513 0.00897487 0.00508156 -0.05866844 0.00855725 0.00536852 -0.05838148 0.00808897 0.0055787 -0.0581713 0.00758156 0.00570691 -0.05804309 0.00704752 0.00024998 -0.0795724 0.00983177 -0.00014051 -0.07958156 0.0098287 0.00024998 -0.08054139 0.00934327 -0.00014051 -0.08055725 0.00933156 0.00024998 -0.08131418 0.00858144 -0.00014051 -0.08133156 0.00855725 0.00024998 -0.08181648 0.00761953 -0.00014051 -0.0818287 0.00758156 -0.00229752 -0.06095248 0.00995691 -0.00283156 -0.06041844 0.0098287 -0.00333897 -0.05991103 0.00961852 -0.00380725 -0.05944275 0.00933156 -0.00422487 -0.05902513 0.00897487 -0.00486852 -0.05838148 0.00808897 -0.00458156 -0.05866844 0.00855725 -0.00520691 -0.05804309 0.00704752 -0.0050787 -0.0581713 0.00758156 -0.00520691 -0.08195691 0.00704752 -0.0050787 -0.0818287 0.00758156 -0.00486852 -0.08161853 0.00808897 -0.00458156 -0.08133156 0.00855725 -0.00380725 -0.08055725 0.00933156 -0.00422487 -0.08097488 0.00897487 -0.00229752 -0.07904752 0.00995691 -0.00283156 -0.07958156 0.0098287 -0.00333897 -0.08008897 0.00961852 -0.033965 0.082 -0.003 -0.00575 0.082 -0 0.00575 0.082 -0 -0.00575 0.082 0.01 -0.033965 0.082 0.07 0.00575 0.082 0.01 0.033965 0.082 0.07 0.033965 0.082 -0.003 0.00575 -0.082 0.01 0.033965 -0.082 0.07 -0.00575 -0.082 0.01 -0.033965 -0.082 0.07 -0.00575 -0.082 -0 -0.033965 -0.082 -0.003 0.00575 -0.082 -0 0.033965 -0.082 -0.003 0.00575 0.0735 -0 0.03044418 0.0735 -0 0.00575 0.0735 0.01 0.03044418 0.0735 0.07 -0.00575 0.0735 0.01 -0.03044418 0.0735 0.07 -0.00575 0.0735 -0 -0.03044418 0.0735 -0 -0.00575 -0.0735 -0 -0.03044418 -0.0735 -0 -0.00575 -0.0735 0.01 -0.03044418 -0.0735 0.07 0.00575 -0.0735 0.01 0.03044418 -0.0735 0.07 0.00575 -0.0735 -0 0.03044418 -0.0735 -0 0.082 -0.033965 0.07 0.082 -0.033965 -0.003 0.082 -0.00575 0.01 0.082 -0.00575 -0 0.082 0.00575 -0 0.082 0.033965 -0.003 0.082 0.00575 0.01 0.082 0.033965 0.07 -0.082 0.033965 0.07 -0.082 0.033965 -0.003 -0.082 0.00575 -0 -0.082 -0.00575 -0 -0.082 -0.033965 -0.003 -0.082 -0.00575 0.01 -0.082 -0.033965 0.07 -0.082 0.00575 0.01 0.0735 0.03044418 0.07 0.0735 0.03044418 -0 0.0735 -0.00575 -0 0.0735 -0.03044418 -0 0.0735 -0.00575 0.01 0.0735 -0.03044418 0.07 0.0735 0.00575 0.01 0.0735 0.00575 -0 -0.0735 -0.03044418 0.07 -0.0735 -0.03044418 -0 -0.0735 0.00575 -0 -0.0735 0.03044418 -0 -0.0735 0.00575 0.01 -0.0735 0.03044418 0.07 -0.0735 -0.00575 0.01 -0.0735 -0.00575 -0 -0.082 -0.00575 0.0065 -0.082 -0.00064051 0.0065 -0.082 -0.001025 0.00634234 -0.082 0.00014051 0.0065 -0.082 0.00525 0.0065 -0.082 0.000525 0.00634234 -0.082 0.00109234 0.005775 -0.082 0.00525 -0 -0.082 0.00109234 0.004225 -0.082 0.0013 0.005 -0.082 -0.00159234 0.005775 -0.082 -0.0018 0.005 -0.082 -0.00575 -0 -0.082 -0.00159234 0.004225 -0.082 -0.001025 0.00365766 -0.082 -0.00025 0.00345 -0.082 0.000525 0.00365766 -0.058 -0.00575 0.0065 -0.058 -0.00575 -0 -0.058 0.00525 0.0065 -0.058 0.00525 -0 -0.0785 0.00175 0.01 -0.0785 0.00014051 0.01 -0.0615 0.00175 0.01 -0.07850036 -0.00024998 0.01 -0.0615 -0.00225 0.01 -0.0785 -0.00064051 0.01 -0.0785 -0.00225 0.01 -0.105 0.000525 0.00634234 -0.105 -0.00025 0.00655 -0.105 0.00109234 0.005775 -0.105 0.0013 0.005 -0.105 0.00109234 0.004225 -0.105 0.000525 0.00365766 -0.105 -0.00025 0.00345 -0.105 -0.001025 0.00365766 -0.105 -0.00159234 0.004225 -0.105 -0.0018 0.005 -0.105 -0.00159234 0.005775 -0.105 -0.001025 0.00634234 -0.082 -0.00025 0.00655 -0.105 -0.00025 0.005 -0.07904752 -0.00279752 0.00995691 -0.07958156 -0.00064051 0.0098287 -0.07958156 -0.00333156 0.0098287 -0.08008897 -0.00383897 0.00961852 -0.08055725 -0.00064051 0.00933156 -0.08055725 -0.00430725 0.00933156 -0.08097488 -0.00472487 0.00897487 -0.08133156 -0.00064051 0.00855725 -0.08133156 -0.00508156 0.00855725 -0.08161853 -0.00536852 0.00808897 -0.0818287 -0.00064051 0.00758156 -0.0818287 -0.0055787 0.00758156 -0.08195691 -0.00570691 0.00704752 -0.06095248 -0.00279752 0.00995691 -0.06041844 -0.00333156 0.0098287 -0.05991103 -0.00383897 0.00961852 -0.05944275 -0.00430725 0.00933156 -0.05902513 -0.00472487 0.00897487 -0.05866844 -0.00508156 0.00855725 -0.05838148 -0.00536852 0.00808897 -0.0581713 -0.0055787 0.00758156 -0.05804309 -0.00570691 0.00704752 -0.0795724 -0.00024998 0.00983177 -0.07958156 0.00014051 0.0098287 -0.08054139 -0.00024998 0.00934327 -0.08055725 0.00014051 0.00933156 -0.08131418 -0.00024998 0.00858144 -0.08133156 0.00014051 0.00855725 -0.08181648 -0.00024998 0.00761953 -0.0818287 0.00014051 0.00758156 -0.06095248 0.00229752 0.00995691 -0.06041844 0.00283156 0.0098287 -0.05991103 0.00333897 0.00961852 -0.05944275 0.00380725 0.00933156 -0.05902513 0.00422487 0.00897487 -0.05838148 0.00486852 0.00808897 -0.05866844 0.00458156 0.00855725 -0.05804309 0.00520691 0.00704752 -0.0581713 0.0050787 0.00758156 -0.08195691 0.00520691 0.00704752 -0.0818287 0.0050787 0.00758156 -0.08161853 0.00486852 0.00808897 -0.08133156 0.00458156 0.00855725 -0.08055725 0.00380725 0.00933156 -0.08097488 0.00422487 0.00897487 -0.07904752 0.00229752 0.00995691 -0.07958156 0.00283156 0.0098287 -0.08008897 0.00333897 0.00961852 0.082 0.00575 0.0065 0.082 0.00064051 0.0065 0.082 0.001025 0.00634234 0.082 -0.00014051 0.0065 0.082 -0.00525 0.0065 0.082 -0.000525 0.00634234 0.082 -0.00109234 0.005775 0.082 -0.00525 -0 0.082 -0.00109234 0.004225 0.082 -0.0013 0.005 0.082 0.00159234 0.005775 0.082 0.0018 0.005 0.082 0.00575 -0 0.082 0.00159234 0.004225 0.082 0.001025 0.00365766 0.082 0.00025 0.00345 0.082 -0.000525 0.00365766 0.058 0.00575 0.0065 0.058 0.00575 -0 0.058 -0.00525 0.0065 0.058 -0.00525 -0 0.0785 -0.00175 0.01 0.0785 -0.00014051 0.01 0.0615 -0.00175 0.01 0.07850036 0.00024998 0.01 0.0615 0.00225 0.01 0.0785 0.00064051 0.01 0.0785 0.00225 0.01 0.105 -0.000525 0.00634234 0.105 0.00025 0.00655 0.105 -0.00109234 0.005775 0.105 -0.0013 0.005 0.105 -0.00109234 0.004225 0.105 -0.000525 0.00365766 0.105 0.00025 0.00345 0.105 0.001025 0.00365766 0.105 0.00159234 0.004225 0.105 0.0018 0.005 0.105 0.00159234 0.005775 0.105 0.001025 0.00634234 0.082 0.00025 0.00655 0.105 0.00025 0.005 0.07904752 0.00279752 0.00995691 0.07958156 0.00064051 0.0098287 0.07958156 0.00333156 0.0098287 0.08008897 0.00383897 0.00961852 0.08055725 0.00064051 0.00933156 0.08055725 0.00430725 0.00933156 0.08097488 0.00472487 0.00897487 0.08133156 0.00064051 0.00855725 0.08133156 0.00508156 0.00855725 0.08161853 0.00536852 0.00808897 0.0818287 0.00064051 0.00758156 0.0818287 0.0055787 0.00758156 0.08195691 0.00570691 0.00704752 0.06095248 0.00279752 0.00995691 0.06041844 0.00333156 0.0098287 0.05991103 0.00383897 0.00961852 0.05944275 0.00430725 0.00933156 0.05902513 0.00472487 0.00897487 0.05866844 0.00508156 0.00855725 0.05838148 0.00536852 0.00808897 0.0581713 0.0055787 0.00758156 0.05804309 0.00570691 0.00704752 0.0795724 0.00024998 0.00983177 0.07958156 -0.00014051 0.0098287 0.08054139 0.00024998 0.00934327 0.08055725 -0.00014051 0.00933156 0.08131418 0.00024998 0.00858144 0.08133156 -0.00014051 0.00855725 0.08181648 0.00024998 0.00761953 0.0818287 -0.00014051 0.00758156 0.06095248 -0.00229752 0.00995691 0.06041844 -0.00283156 0.0098287 0.05991103 -0.00333897 0.00961852 0.05944275 -0.00380725 0.00933156 0.05902513 -0.00422487 0.00897487 0.05838148 -0.00486852 0.00808897 0.05866844 -0.00458156 0.00855725 0.05804309 -0.00520691 0.00704752 0.0581713 -0.0050787 0.00758156 0.08195691 -0.00520691 0.00704752 0.0818287 -0.0050787 0.00758156 0.08161853 -0.00486852 0.00808897 0.08133156 -0.00458156 0.00855725 0.08055725 -0.00380725 0.00933156 0.08097488 -0.00422487 0.00897487 0.07904752 -0.00229752 0.00995691 0.07958156 -0.00283156 0.0098287 0.08008897 -0.00333897 0.00961852 -0.00525 0.082 0.0065 -0.00014051 0.082 0.0065 -0.000525 0.082 0.00634234 0.00064051 0.082 0.0065 0.00575 0.082 0.0065 0.001025 0.082 0.00634234 0.00159234 0.082 0.005775 0.00575 0.082 -0 0.00159234 0.082 0.004225 0.0018 0.082 0.005 -0.00109234 0.082 0.005775 -0.0013 0.082 0.005 -0.00525 0.082 -0 -0.00109234 0.082 0.004225 -0.000525 0.082 0.00365766 0.00025 0.082 0.00345 0.001025 0.082 0.00365766 -0.00525 0.058 0.0065 -0.00525 0.058 -0 0.00575 0.058 0.0065 0.00575 0.058 -0 0.00225 0.0785 0.01 0.00064051 0.0785 0.01 0.00225 0.0615 0.01 0.00025002 0.07850036 0.01 -0.00175 0.0615 0.01 -0.00014051 0.0785 0.01 -0.00175 0.0785 0.01 0.001025 0.105 0.00634234 0.00025 0.105 0.00655 0.00159234 0.105 0.005775 0.0018 0.105 0.005 0.00159234 0.105 0.004225 0.001025 0.105 0.00365766 0.00025 0.105 0.00345 -0.000525 0.105 0.00365766 -0.00109234 0.105 0.004225 -0.0013 0.105 0.005 -0.00109234 0.105 0.005775 -0.000525 0.105 0.00634234 0.00025 0.082 0.00655 0.00025 0.105 0.005 -0.00229752 0.07904752 0.00995691 -0.00014051 0.07958156 0.0098287 -0.00283156 0.07958156 0.0098287 -0.00333897 0.08008897 0.00961852 -0.00014051 0.08055725 0.00933156 -0.00380725 0.08055725 0.00933156 -0.00422487 0.08097488 0.00897487 -0.00014051 0.08133156 0.00855725 -0.00458156 0.08133156 0.00855725 -0.00486852 0.08161853 0.00808897 -0.00014051 0.0818287 0.00758156 -0.0050787 0.0818287 0.00758156 -0.00520691 0.08195691 0.00704752 -0.00229752 0.06095248 0.00995691 -0.00283156 0.06041844 0.0098287 -0.00333897 0.05991103 0.00961852 -0.00380725 0.05944275 0.00933156 -0.00422487 0.05902513 0.00897487 -0.00458156 0.05866844 0.00855725 -0.00486852 0.05838148 0.00808897 -0.0050787 0.0581713 0.00758156 -0.00520691 0.05804309 0.00704752 0.00025002 0.0795724 0.00983177 0.00064051 0.07958156 0.0098287 0.00025002 0.08054139 0.00934327 0.00064051 0.08055725 0.00933156 0.00025002 0.08131418 0.00858144 0.00064051 0.08133156 0.00855725 0.00025002 0.08181648 0.00761953 0.00064051 0.0818287 0.00758156 0.00279752 0.06095248 0.00995691 0.00333156 0.06041844 0.0098287 0.00383897 0.05991103 0.00961852 0.00430725 0.05944275 0.00933156 0.00472487 0.05902513 0.00897487 0.00536852 0.05838148 0.00808897 0.00508156 0.05866844 0.00855725 0.00570691 0.05804309 0.00704752 0.0055787 0.0581713 0.00758156 0.00570691 0.08195691 0.00704752 0.0055787 0.0818287 0.00758156 0.00536852 0.08161853 0.00808897 0.00508156 0.08133156 0.00855725 0.00430725 0.08055725 0.00933156 0.00472487 0.08097488 0.00897487 0.00279752 0.07904752 0.00995691 0.00333156 0.07958156 0.0098287 0.00383897 0.08008897 0.00961852</float_array>
          <technique_common>
            <accessor source="#pos_0-array" count="1272" stride="3">
              <param name="X" type="float"/>
              <param name="Y" type="float"/>
              <param name="Z" type="float"/>
            </accessor>
          </technique_common>
        </source>
        <source id="norm_0">
          <float_array id="norm_0-array" count="1110">-0 -1 0 -0 -1 0 1 -0 -0 0 1 -0 -1 0 0 0 0 1 0 0 1 -0 -0 -1 -0.25882 -0.00229 0.96592 -0.3794 0 0.92523 -0.70711 0 0.70711 -0.96593 0 0.25882 -0.96593 0 -0.25882 -0.70711 -0 -0.70711 -0.25882 -0 -0.96593 -0.25882 -0 -0.96593 0.25882 -0 -0.96593 0.25882 -0 -0.96593 0.70711 -0 -0.70711 0.96593 -0 -0.25882 0.96593 -0 0.25882 0.70711 0 0.70711 0.3794 0 0.92523 0.25882 -0.00229 0.96592 0.127 0 0.9919 -0.127 0 0.9919 0 -0.07846 0.99692 -0.01997 -0.1564 0.98749 0 -0.23345 0.97237 0 -0.38268 0.92388 -0.01347 -0.45395 0.89093 0 -0.5225 0.85264 0 -0.64945 0.76041 -0.01055 -0.70707 0.70707 0 -0.76041 0.64945 0 -0.85264 0.5225 -0.00911 -0.89097 0.45397 0 -0.92388 0.38268 -0 -0.97237 0.23344 -0.0085 -0.98765 0.15643 -0 -0.99692 0.07846 0.07846 0 0.99692 0.23345 0 0.97237 0.38268 0 0.92388 0.5225 0 0.85264 0.64945 0 0.76041 0.76041 0 0.64945 0.76041 0 0.64945 0.85264 0 0.5225 0.92388 0 0.38268 0.97237 -0 0.23345 0.99692 -0 0.07846 -0.00014 -0.15502 0.98791 -0.00411 -0.15643 0.98768 0.00352 -0.45016 0.89294 -0.00828 -0.45397 0.89098 0.00715 -0.70202 0.71212 -0.01234 -0.70705 0.70705 0.01077 -0.88637 0.46285 -0.01626 -0.89089 0.45393 0.0144 -0.98549 0.1691 -0.02003 -0.98749 0.1564 0.00014 -0.15643 0.98769 0.00415 -0.15502 0.9879 -0.00363 -0.45399 0.891 0.0085 -0.45015 0.89291 -0.00751 -0.70709 0.70709 0.01288 -0.70198 0.71208 -0.01153 -0.89095 0.45396 0.01726 -0.88629 0.46281 -0.0157 -0.98757 0.15641 0.02165 -0.98536 0.16908 0 0.07846 0.99692 0 0.23345 0.97237 0 0.38268 0.92388 0 0.5225 0.85264 0 0.64945 0.76041 0 0.92388 0.38268 0 0.85264 0.5225 0 0.76041 0.64945 0 0.99692 0.07846 0 0.97237 0.23344 0.0085 -0.98765 0.15643 0.00911 -0.89097 0.45397 0 -0.70711 0.70711 0.0191 -0.66031 0.75075 0 -0.15643 0.98769 0.03181 -0.11 0.99342 0 -0.45399 0.89101 0.02321 -0.4023 0.91521 -0.07846 0 0.99692 -0.23345 0 0.97237 -0.38268 0 0.92388 -0.5225 0 0.85264 -0.64945 0 0.76041 -0.92388 0 0.38268 -0.85264 0 0.5225 -0.85264 0 0.5225 -0.76041 0 0.64945 -0.76041 0 0.64945 -0.99692 0 0.07846 -0.99692 0 0.07846 -0.97237 0 0.23345 -0 1 -0 0 -1 0 0.70711 -0.70711 0 1 0 0 1 0 0 0.70711 0.70711 -0 -0.70711 0.70711 -0 -1 -0 0 -1 -0 -0 -0.70711 -0.70711 0 0 -0 -1 0 -0 -1 -0.70711 -0.70711 0 0.70711 0.70711 -0 0.70711 -0.70711 0 -0 0 1 -0 0 1 0 -1 0 -0 1 -0 -0 0 1 -0 0 1 0 -0 -1 -0.00229 0.25882 0.96592 -0 0.3794 0.92523 -0 0.70711 0.70711 -0 0.96593 0.25882 -0 0.96593 -0.25882 -0 0.70711 -0.70711 -0 0.25882 -0.96593 -0 0.25882 -0.96593 0 -0.25882 -0.96593 0 -0.25882 -0.96593 0 -0.70711 -0.70711 0 -0.96593 -0.25882 0 -0.96593 0.25882 0 -0.70711 0.70711 0 -0.3794 0.92523 -0.00229 -0.25882 0.96592 0 -0.127 0.9919 -0 0.127 0.9919 -0.07846 0 0.99692 -0.1564 0.01997 0.98749 -0.23345 0 0.97237 -0.38268 0 0.92388 -0.45395 0.01347 0.89093 -0.5225 0 0.85264 -0.64945 0 0.76041 -0.70707 0.01055 0.70707 -0.76041 0 0.64945 -0.85264 0 0.5225 -0.89097 0.00911 0.45397 -0.92388 0 0.38268 -0.97237 0 0.23344 -0.98765 0.0085 0.15643 -0.99692 -0 0.07846 0 -0.07846 0.99692 0 -0.23345 0.97237 0 -0.38268 0.92388 0 -0.5225 0.85264 0 -0.64945 0.76041 0 -0.76041 0.64945 0 -0.85264 0.5225 0 -0.92388 0.38268 0 -0.97237 0.23345 0 -0.99692 0.07846 -0.15502 0.00014 0.98791 -0.15643 0.00411 0.98768 -0.45016 -0.00352 0.89294 -0.45397 0.00828 0.89098 -0.70202 -0.00715 0.71212 -0.70705 0.01234 0.70705 -0.88637 -0.01077 0.46285 -0.89089 0.01626 0.45393 -0.98549 -0.0144 0.1691 -0.98749 0.02003 0.1564 -0.15643 -0.00014 0.98769 -0.15502 -0.00415 0.9879 -0.45399 0.00363 0.891 -0.45015 -0.0085 0.89291 -0.70709 0.00751 0.70709 -0.70198 -0.01288 0.71208 -0.89095 0.01153 0.45396 -0.88629 -0.01726 0.46281 -0.98757 0.0157 0.15641 -0.98536 -0.02165 0.16908 0.07846 0 0.99692 0.23345 0 0.97237 0.23345 0 0.97237 0.38268 0 0.92388 0.5225 0 0.85264 0.64945 0 0.76041 0.92388 0 0.38268 0.85264 0 0.5225 0.76041 0 0.64945 0.76041 0 0.64945 0.99692 0 0.07846 0.99692 0 0.07846 0.97237 0 0.23344 0.97237 0 0.23344 0.92388 0 0.38268 -0.98765 -0.0085 0.15643 -0.89097 -0.00911 0.45397 -0.70711 0 0.70711 -0.66031 -0.0191 0.75075 -0.15643 0 0.98769 -0.11 -0.03181 0.99342 -0.45399 0 0.89101 -0.4023 -0.02321 0.91521 -0 0.07846 0.99692 -0 0.23345 0.97237 -0 0.38268 0.92388 -0 0.5225 0.85264 -0 0.64945 0.76041 -0 0.92388 0.38268 -0 0.85264 0.5225 -0 0.76041 0.64945 -0 0.99692 0.07846 -0 0.97237 0.23345 0.00229 -0.25882 0.96592 0 -0.25882 -0.96593 -0 0.25882 -0.96593 0.00229 0.25882 0.96592 0.07846 0 0.99692 0.1564 -0.01997 0.98749 0.45395 -0.01347 0.89093 0.5225 0 0.85264 0.70707 -0.01055 0.70707 0.89097 -0.00911 0.45397 0.98765 -0.0085 0.15643 0.15502 -0.00014 0.98791 0.15643 -0.00411 0.98768 0.45016 0.00352 0.89294 0.45397 -0.00828 0.89098 0.70202 0.00715 0.71212 0.70705 -0.01234 0.70705 0.88637 0.01077 0.46285 0.89089 -0.01626 0.45393 0.98549 0.0144 0.1691 0.98749 -0.02003 0.1564 0.15643 0.00014 0.98769 0.15502 0.00415 0.9879 0.45399 -0.00363 0.891 0.45015 0.0085 0.89291 0.70709 -0.00751 0.70709 0.70198 0.01288 0.71208 0.89095 -0.01153 0.45396 0.88629 0.01726 0.46281 0.98757 -0.0157 0.15641 0.98536 0.02165 0.16908 -0.07846 0 0.99692 -0.23345 0 0.97237 -0.5225 0 0.85264 -0.76041 0 0.64945 -0.99692 -0 0.07846 -0.97237 -0 0.23344 0.98765 0.0085 0.15643 0.89097 0.00911 0.45397 0.70711 0 0.70711 0.66031 0.0191 0.75075 0.15643 0 0.98769 0.11 0.03181 0.99342 0.45399 0 0.89101 0.4023 0.02321 0.91521 -0 1 -0 0 1 -0 -1 0 0 0 -1 0 1 -0 -0 0 0 1 0 0 1 -0 -0 -1 0.25882 0.00229 0.96592 0.3794 0 0.92523 0.70711 0 0.70711 0.96593 0 0.25882 0.96593 -0 -0.25882 0.70711 -0 -0.70711 0.25882 -0 -0.96593 -0.25882 -0 -0.96593 -0.25882 -0 -0.96593 -0.70711 -0 -0.70711 -0.96593 -0 -0.25882 -0.96593 0 0.25882 -0.70711 0 0.70711 -0.3794 0 0.92523 -0.25882 0.00229 0.96592 -0.127 0 0.9919 0.127 0 0.9919 0 0.07846 0.99692 0.01997 0.1564 0.98749 0 0.23345 0.97237 0 0.38268 0.92388 0.01347 0.45395 0.89093 0 0.5225 0.85264 0 0.64945 0.76041 0.01055 0.70707 0.70707 0 0.76041 0.64945 0 0.85264 0.5225 0.00911 0.89097 0.45397 0 0.92388 0.38268 0 0.97237 0.23344 0.0085 0.98765 0.15643 0 0.99692 0.07846 -0.07846 0 0.99692 -0.23345 0 0.97237 -0.38268 0 0.92388 -0.5225 0 0.85264 -0.64945 0 0.76041 -0.76041 0 0.64945 -0.76041 0 0.64945 -0.85264 0 0.5225 -0.92388 0 0.38268 -0.92388 0 0.38268 -0.97237 0 0.23345 -0.99692 0 0.07846 0.00014 0.15502 0.98791 0.00411 0.15643 0.98768 -0.00352 0.45016 0.89294 0.00828 0.45397 0.89098 -0.00715 0.70202 0.71212 0.01234 0.70705 0.70705 -0.01077 0.88637 0.46285 0.01626 0.89089 0.45393 -0.0144 0.98549 0.1691 0.02003 0.98749 0.1564 -0.00014 0.15643 0.98769 -0.00415 0.15502 0.9879 0.00363 0.45399 0.891 -0.0085 0.45015 0.89291 0.00751 0.70709 0.70709 -0.01288 0.70198 0.71208 0.01153 0.89095 0.45396 -0.01726 0.88629 0.46281 0.0157 0.98757 0.15641 -0.02165 0.98536 0.16908 0 -0.07846 0.99692 0 -0.23345 0.97237 0 -0.38268 0.92388 0 -0.5225 0.85264 0 -0.64945 0.76041 0 -0.92388 0.38268 0 -0.85264 0.5225 0 -0.76041 0.64945 0 -0.99692 0.07846 0 -0.97237 0.23344 -0.0085 0.98765 0.15643 -0.00911 0.89097 0.45397 0 0.70711 0.70711 -0.0191 0.66031 0.75075 0 0.15643 0.98769 -0.03181 0.11 0.99342 0 0.45399 0.89101 -0.02321 0.4023 0.91521 0.07846 0 0.99692 0.23345 0 0.97237 0.38268 0 0.92388 0.5225 0 0.85264 0.64945 0 0.76041 0.92388 0 0.38268 0.85264 0 0.5225 0.85264 0 0.5225 0.76041 0 0.64945 0.76041 0 0.64945 0.99692 0 0.07846 0.99692 0 0.07846 0.97237 0 0.23345 0.92388 0 0.38268</float_array>
          <technique_common>
            <accessor source="#norm_0-array" count="1110" stride="3">
              <param name="X" type="float"/>
              <param name="Y" type="float"/>
              <param name="Z" type="float"/>
            </accessor>
          </technique_common>
        </source>
        <source id="uvs_0">
          <float_array id="uvs_0-array" count="0"></float_array>
          <technique_common>
            <accessor source="#uvs_0-array" count="0" stride="2">
              <param name="S" type="float"/>
              <param name="T" type="float"/>
            </accessor>
          </technique_common>
        </source>
        <vertices id="vert_0">
          <input semantic="POSITION" source="#pos_0"/>
        </vertices>
        <triangles count="844" material="mat_0">
          <input semantic="VERTEX" source="#vert_0" offset="0"/>
          <input semantic="NORMAL" source="#norm_0" offset="1"/>
          <p>0 0 1 0 2 0 3 0 4 0 5 0 5 0 4 0 6 0 7 1 8 1 4 1 4 1 8 1 9 1 4 0 9 0 6 0 2 0 10 0 0 0 0 0 10 0 11 0 0 0 11 0 12 0 12 0 11 0 13 0 13 0 14 0 12 0 12 0 14 0 15 0 12 0 15 0 7 0 7 0 15 0 16 0 7 0 16 0 8 0 0 2 12 2 17 2 17 2 12 2 18 2 17 3 18 3 19 3 19 3 18 3 20 3 19 4 20 4 4 4 4 4 20 4 7 4 21 5 22 5 23 5 23 5 22 5 24 5 23 6 24 6 25 6 25 6 24 6 26 6 25 5 26 5 27 5 20 7 18 7 7 7 7 7 18 7 12 7 28 8 29 8 3 8 3 9 5 9 28 9 28 10 5 10 6 10 28 10 6 10 30 10 30 11 6 11 9 11 30 11 9 11 31 11 31 12 9 12 8 12 31 12 8 12 32 12 32 13 8 13 16 13 32 13 16 13 33 13 33 14 16 14 15 14 33 15 15 15 34 15 34 16 15 16 14 16 34 17 14 17 35 17 35 18 14 18 13 18 35 18 13 18 36 18 36 19 13 19 11 19 36 19 11 19 37 19 37 20 11 20 10 20 37 20 10 20 38 20 38 21 10 21 2 21 38 21 2 21 39 21 39 22 2 22 1 22 39 23 1 23 29 23 29 24 1 24 40 24 29 25 40 25 3 25 35 1 36 1 41 1 41 0 36 0 37 0 41 0 37 0 38 0 32 1 33 1 41 1 41 0 33 0 34 0 41 0 34 0 35 0 28 0 30 0 41 0 41 0 30 0 31 0 41 0 31 0 32 0 38 0 39 0 41 0 41 0 39 0 29 0 41 0 29 0 28 0 27 26 26 26 42 26 42 27 26 27 43 27 42 28 43 28 44 28 44 29 43 29 45 29 45 30 43 30 46 30 45 31 46 31 47 31 47 32 46 32 48 32 48 33 46 33 49 33 48 34 49 34 50 34 50 35 49 35 51 35 51 36 49 36 52 36 51 37 52 37 53 37 53 38 52 38 54 38 54 39 52 39 1 39 54 40 1 40 0 40 25 41 27 41 55 41 55 41 27 41 42 41 55 42 42 42 56 42 56 42 42 42 44 42 56 43 44 43 57 43 57 43 44 43 45 43 57 44 45 44 58 44 58 44 45 44 47 44 58 45 47 45 59 45 59 45 47 45 48 45 59 46 48 46 60 46 60 47 48 47 50 47 60 48 50 48 61 48 61 48 50 48 51 48 61 49 51 49 62 49 62 49 51 49 53 49 62 50 53 50 63 50 63 50 53 50 54 50 63 51 54 51 17 51 17 51 54 51 0 51 24 52 22 52 64 52 64 53 22 53 65 53 64 54 65 54 66 54 66 55 65 55 67 55 66 56 67 56 68 56 68 57 67 57 69 57 68 58 69 58 70 58 70 59 69 59 71 59 70 60 71 60 40 60 40 61 71 61 3 61 26 62 24 62 43 62 43 63 24 63 64 63 43 64 64 64 46 64 46 65 64 65 66 65 46 66 66 66 49 66 49 67 66 67 68 67 49 68 68 68 52 68 52 69 68 69 70 69 52 70 70 70 1 70 1 71 70 71 40 71 23 72 25 72 72 72 72 72 25 72 55 72 72 73 55 73 73 73 73 73 55 73 56 73 73 74 56 74 74 74 74 74 56 74 57 74 74 75 57 75 75 75 75 75 57 75 58 75 75 76 58 76 76 76 62 77 77 77 61 77 61 78 77 78 78 78 61 78 78 78 60 78 60 79 78 79 76 79 60 79 76 79 59 79 59 76 76 76 58 76 17 80 19 80 63 80 63 80 19 80 79 80 63 81 79 81 62 81 62 81 79 81 80 81 62 77 80 77 77 77 4 40 3 40 81 40 81 82 3 82 71 82 81 38 71 38 82 38 82 37 71 37 83 37 83 83 71 83 69 83 83 35 69 35 84 35 67 84 85 84 69 84 69 85 85 85 86 85 69 34 86 34 84 34 65 86 22 86 21 86 21 87 87 87 65 87 65 28 87 28 88 28 65 88 88 88 67 88 67 89 88 89 89 89 67 31 89 31 85 31 21 90 23 90 87 90 87 90 23 90 72 90 87 91 72 91 88 91 88 91 72 91 73 91 88 92 73 92 89 92 89 92 73 92 74 92 89 93 74 93 85 93 85 93 74 93 75 93 85 94 75 94 86 94 80 95 83 95 77 95 77 96 83 96 84 96 77 97 84 97 78 97 78 98 84 98 86 98 78 99 86 99 76 99 76 94 86 94 75 94 19 100 4 100 79 100 79 101 4 101 81 101 79 102 81 102 80 102 80 102 81 102 82 102 80 95 82 95 83 95 90 103 91 103 92 103 91 103 90 103 93 103 93 103 90 103 94 103 93 103 94 103 95 103 95 103 94 103 96 103 95 103 96 103 92 103 92 103 96 103 97 103 92 103 97 103 90 103 98 104 99 104 100 104 100 104 99 104 101 104 100 104 101 104 102 104 102 104 101 104 103 104 102 104 103 104 104 104 104 104 103 104 105 104 104 104 105 104 98 104 98 104 105 104 99 104 106 104 107 104 108 104 108 104 107 104 109 104 108 104 109 104 110 104 110 104 109 104 111 104 110 104 111 104 112 104 112 104 111 104 113 104 114 103 115 103 116 103 116 103 115 103 117 103 116 103 117 103 118 103 118 103 117 103 119 103 118 103 119 103 120 103 120 103 119 103 121 103 122 105 99 105 123 105 123 105 99 105 105 105 124 106 122 106 125 106 125 106 122 106 123 106 125 106 123 106 126 106 126 107 123 107 127 107 126 106 127 106 128 106 128 106 127 106 129 106 128 106 129 106 124 106 124 106 129 106 122 106 96 108 129 108 97 108 97 108 129 108 127 108 130 109 94 109 131 109 131 109 94 109 90 109 132 110 131 110 133 110 133 111 131 111 134 111 133 110 134 110 135 110 135 110 134 110 136 110 135 110 136 110 137 110 137 110 136 110 130 110 137 110 130 110 132 110 132 110 130 110 131 110 101 112 136 112 103 112 103 112 136 112 134 112 103 113 134 113 131 113 131 113 90 113 97 113 105 114 103 114 123 114 123 113 103 113 131 113 123 113 131 113 127 113 127 113 131 113 97 113 138 115 109 115 139 115 139 115 109 115 107 115 140 110 141 110 142 110 142 110 141 110 143 110 142 110 143 110 144 110 144 111 143 111 138 111 144 110 138 110 145 110 145 110 138 110 139 110 119 109 143 109 121 109 121 109 143 109 141 109 146 116 117 116 147 116 147 116 117 116 115 116 148 106 149 106 150 106 150 106 149 106 151 106 150 106 151 106 152 106 152 107 151 107 146 107 152 106 146 106 153 106 153 106 146 106 147 106 111 117 151 117 113 117 113 117 151 117 149 117 111 118 94 118 151 118 151 118 94 118 130 118 151 118 130 118 146 118 146 118 130 118 136 118 146 118 136 118 117 118 117 118 136 118 101 118 117 118 101 118 119 118 119 118 101 118 99 118 119 118 99 118 143 118 143 118 99 118 122 118 143 118 122 118 138 118 138 118 122 118 129 118 138 118 129 118 109 118 109 118 129 118 96 118 109 118 96 118 111 118 111 118 96 118 94 118 145 118 139 118 107 118 153 118 147 118 115 118 92 118 91 118 106 118 106 118 91 118 112 118 102 118 104 118 114 118 114 118 104 118 120 118 132 118 133 118 148 118 148 118 133 118 153 118 125 118 126 118 140 118 140 118 126 118 145 118 113 118 149 118 112 118 112 119 149 119 148 119 112 118 148 118 106 118 106 118 148 118 153 118 106 118 153 118 114 118 114 119 153 119 115 119 121 118 141 118 120 118 120 118 141 118 140 118 120 119 140 119 114 119 114 118 140 118 145 118 114 119 145 119 106 119 106 118 145 118 107 118 153 103 133 103 152 103 152 103 133 103 135 103 150 104 137 104 148 104 148 104 137 104 132 104 152 113 135 113 150 113 150 113 135 113 137 113 128 113 124 113 144 113 144 113 124 113 142 113 126 104 128 104 145 104 145 104 128 104 144 104 124 103 125 103 142 103 142 103 125 103 140 103 116 113 118 113 100 113 100 113 118 113 98 113 118 110 120 110 98 110 98 110 120 110 104 110 114 106 116 106 102 106 102 106 116 106 100 106 93 113 95 113 110 113 110 113 95 113 108 113 91 106 93 106 112 106 112 106 93 106 110 106 95 110 92 110 108 110 108 110 92 110 106 110 154 110 155 110 156 110 157 110 158 110 159 110 159 110 158 110 160 110 161 111 162 111 158 111 158 111 162 111 163 111 158 110 163 110 160 110 156 110 164 110 154 110 154 110 164 110 165 110 154 110 165 110 166 110 166 110 165 110 167 110 167 110 168 110 166 110 166 110 168 110 169 110 166 110 169 110 161 110 161 110 169 110 170 110 161 110 170 110 162 110 154 120 166 120 171 120 171 120 166 120 172 120 171 106 172 106 173 106 173 106 172 106 174 106 173 121 174 121 158 121 158 121 174 121 161 121 175 122 176 122 177 122 177 122 176 122 178 122 177 123 178 123 179 123 179 123 178 123 180 123 179 122 180 122 181 122 174 124 172 124 161 124 161 124 172 124 166 124 182 125 183 125 157 125 157 126 159 126 182 126 182 127 159 127 160 127 182 127 160 127 184 127 184 128 160 128 163 128 184 128 163 128 185 128 185 129 163 129 162 129 185 129 162 129 186 129 186 130 162 130 170 130 186 130 170 130 187 130 187 131 170 131 169 131 187 132 169 132 188 132 188 133 169 133 168 133 188 134 168 134 189 134 189 135 168 135 167 135 189 135 167 135 190 135 190 136 167 136 165 136 190 136 165 136 191 136 191 137 165 137 164 137 191 137 164 137 192 137 192 138 164 138 156 138 192 138 156 138 193 138 193 139 156 139 155 139 193 140 155 140 183 140 183 141 155 141 194 141 183 142 194 142 157 142 189 111 190 111 195 111 195 110 190 110 191 110 195 110 191 110 192 110 186 111 187 111 195 111 195 110 187 110 188 110 195 110 188 110 189 110 182 110 184 110 195 110 195 110 184 110 185 110 195 110 185 110 186 110 192 110 193 110 195 110 195 110 193 110 183 110 195 110 183 110 182 110 181 143 180 143 196 143 196 144 180 144 197 144 196 145 197 145 198 145 198 146 197 146 199 146 199 147 197 147 200 147 199 148 200 148 201 148 201 149 200 149 202 149 202 150 200 150 203 150 202 151 203 151 204 151 204 152 203 152 205 152 205 153 203 153 206 153 205 154 206 154 207 154 207 155 206 155 208 155 208 156 206 156 155 156 208 157 155 157 154 157 179 158 181 158 209 158 209 158 181 158 196 158 209 159 196 159 210 159 210 159 196 159 198 159 210 160 198 160 211 160 211 160 198 160 199 160 211 161 199 161 212 161 212 161 199 161 201 161 212 162 201 162 213 162 213 162 201 162 202 162 213 163 202 163 214 163 214 163 202 163 204 163 214 164 204 164 215 164 215 164 204 164 205 164 215 165 205 165 216 165 216 165 205 165 207 165 216 166 207 166 217 166 217 166 207 166 208 166 217 167 208 167 171 167 171 167 208 167 154 167 178 168 176 168 218 168 218 169 176 169 219 169 218 170 219 170 220 170 220 171 219 171 221 171 220 172 221 172 222 172 222 173 221 173 223 173 222 174 223 174 224 174 224 175 223 175 225 175 224 176 225 176 194 176 194 177 225 177 157 177 180 178 178 178 197 178 197 179 178 179 218 179 197 180 218 180 200 180 200 181 218 181 220 181 200 182 220 182 203 182 203 183 220 183 222 183 203 184 222 184 206 184 206 185 222 185 224 185 206 186 224 186 155 186 155 187 224 187 194 187 177 188 179 188 226 188 226 188 179 188 209 188 226 189 209 189 227 189 227 190 209 190 210 190 227 191 210 191 228 191 228 191 210 191 211 191 228 192 211 192 229 192 229 192 211 192 212 192 229 193 212 193 230 193 216 194 231 194 215 194 215 195 231 195 232 195 215 195 232 195 214 195 214 196 232 196 230 196 214 197 230 197 213 197 213 193 230 193 212 193 171 198 173 198 217 198 217 199 173 199 233 199 217 200 233 200 216 200 216 201 233 201 234 201 216 202 234 202 231 202 158 157 157 157 235 157 235 203 157 203 225 203 235 155 225 155 236 155 236 154 225 154 237 154 237 204 225 204 223 204 237 152 223 152 238 152 221 205 239 205 223 205 223 206 239 206 240 206 223 151 240 151 238 151 219 207 176 207 175 207 175 208 241 208 219 208 219 145 241 145 242 145 219 209 242 209 221 209 221 210 242 210 243 210 221 148 243 148 239 148 175 211 177 211 241 211 241 211 177 211 226 211 241 212 226 212 242 212 242 212 226 212 227 212 242 213 227 213 243 213 243 213 227 213 228 213 243 214 228 214 239 214 239 214 228 214 229 214 239 215 229 215 240 215 234 216 237 216 231 216 231 217 237 217 238 217 231 217 238 217 232 217 232 218 238 218 240 218 232 218 240 218 230 218 230 215 240 215 229 215 173 219 158 219 233 219 233 219 158 219 235 219 233 220 235 220 234 220 234 220 235 220 236 220 234 216 236 216 237 216 244 106 245 106 246 106 247 106 248 106 249 106 249 106 248 106 250 106 251 107 252 107 248 107 248 107 252 107 253 107 248 106 253 106 250 106 246 106 254 106 244 106 244 106 254 106 255 106 244 106 255 106 256 106 256 106 255 106 257 106 257 106 258 106 256 106 256 106 258 106 259 106 256 106 259 106 251 106 251 106 259 106 260 106 251 106 260 106 252 106 244 121 256 121 261 121 261 121 256 121 262 121 261 110 262 110 263 110 263 110 262 110 264 110 263 120 264 120 248 120 248 120 264 120 251 120 265 122 266 122 267 122 267 122 266 122 268 122 267 123 268 123 269 123 269 123 268 123 270 123 269 122 270 122 271 122 264 124 262 124 251 124 251 124 262 124 256 124 272 221 273 221 247 221 247 139 249 139 272 139 272 138 249 138 250 138 272 138 250 138 274 138 274 137 250 137 253 137 274 137 253 137 275 137 275 136 253 136 252 136 275 136 252 136 276 136 276 135 252 135 260 135 276 135 260 135 277 135 277 134 260 134 259 134 277 222 259 222 278 222 278 223 259 223 258 223 278 131 258 131 279 131 279 130 258 130 257 130 279 130 257 130 280 130 280 129 257 129 255 129 280 129 255 129 281 129 281 128 255 128 254 128 281 128 254 128 282 128 282 127 254 127 246 127 282 127 246 127 283 127 283 126 246 126 245 126 283 224 245 224 273 224 273 142 245 142 284 142 273 141 284 141 247 141 279 107 280 107 285 107 285 106 280 106 281 106 285 106 281 106 282 106 276 107 277 107 285 107 285 106 277 106 278 106 285 106 278 106 279 106 272 106 274 106 285 106 285 106 274 106 275 106 285 106 275 106 276 106 282 106 283 106 285 106 285 106 283 106 273 106 285 106 273 106 272 106 271 225 270 225 286 225 286 226 270 226 287 226 286 190 287 190 288 190 288 191 287 191 289 191 289 227 287 227 290 227 289 228 290 228 291 228 291 193 290 193 292 193 292 229 290 229 293 229 292 196 293 196 294 196 294 195 293 195 295 195 295 230 293 230 296 230 295 194 296 194 297 194 297 201 296 201 298 201 298 231 296 231 245 231 298 198 245 198 244 198 269 211 271 211 299 211 299 211 271 211 286 211 299 212 286 212 300 212 300 212 286 212 288 212 300 213 288 213 301 213 301 213 288 213 289 213 301 214 289 214 302 214 302 214 289 214 291 214 302 215 291 215 303 215 303 215 291 215 292 215 303 218 292 218 304 218 304 218 292 218 294 218 304 217 294 217 305 217 305 217 294 217 295 217 305 216 295 216 306 216 306 216 295 216 297 216 306 220 297 220 307 220 307 220 297 220 298 220 307 219 298 219 261 219 261 219 298 219 244 219 268 232 266 232 308 232 308 233 266 233 309 233 308 234 309 234 310 234 310 235 309 235 311 235 310 236 311 236 312 236 312 237 311 237 313 237 312 238 313 238 314 238 314 239 313 239 315 239 314 240 315 240 284 240 284 241 315 241 247 241 270 242 268 242 287 242 287 243 268 243 308 243 287 244 308 244 290 244 290 245 308 245 310 245 290 246 310 246 293 246 293 247 310 247 312 247 293 248 312 248 296 248 296 249 312 249 314 249 296 250 314 250 245 250 245 251 314 251 284 251 267 252 269 252 316 252 316 252 269 252 299 252 316 253 299 253 317 253 317 145 299 145 300 145 317 146 300 146 318 146 318 146 300 146 301 146 318 254 301 254 319 254 319 254 301 254 302 254 319 149 302 149 320 149 306 154 321 154 305 154 305 152 321 152 322 152 305 152 322 152 304 152 304 151 322 151 320 151 304 255 320 255 303 255 303 149 320 149 302 149 261 157 263 157 307 157 307 256 263 256 323 256 307 257 323 257 306 257 306 155 323 155 324 155 306 154 324 154 321 154 248 198 247 198 325 198 325 258 247 258 315 258 325 201 315 201 326 201 326 194 315 194 327 194 327 259 315 259 313 259 327 195 313 195 328 195 311 260 329 260 313 260 313 261 329 261 330 261 313 196 330 196 328 196 309 262 266 262 265 262 265 263 331 263 309 263 309 190 331 190 332 190 309 264 332 264 311 264 311 265 332 265 333 265 311 228 333 228 329 228 265 158 267 158 331 158 331 158 267 158 316 158 331 159 316 159 332 159 332 159 316 159 317 159 332 160 317 160 333 160 333 160 317 160 318 160 333 161 318 161 329 161 329 161 318 161 319 161 329 162 319 162 330 162 324 165 327 165 321 165 321 164 327 164 328 164 321 164 328 164 322 164 322 163 328 163 330 163 322 163 330 163 320 163 320 162 330 162 319 162 263 167 248 167 323 167 323 167 248 167 325 167 323 166 325 166 324 166 324 166 325 166 326 166 324 165 326 165 327 165 334 266 335 266 336 266 337 266 338 266 339 266 339 266 338 266 340 266 341 267 342 267 338 267 338 267 342 267 343 267 338 266 343 266 340 266 336 266 344 266 334 266 334 266 344 266 345 266 334 266 345 266 346 266 346 266 345 266 347 266 347 266 348 266 346 266 346 266 348 266 349 266 346 266 349 266 341 266 341 266 349 266 350 266 341 266 350 266 342 266 334 268 346 268 351 268 351 268 346 268 352 268 351 269 352 269 353 269 353 269 352 269 354 269 353 270 354 270 338 270 338 270 354 270 341 270 355 271 356 271 357 271 357 271 356 271 358 271 357 272 358 272 359 272 359 272 358 272 360 272 359 271 360 271 361 271 354 273 352 273 341 273 341 273 352 273 346 273 362 274 363 274 337 274 337 275 339 275 362 275 362 276 339 276 340 276 362 276 340 276 364 276 364 277 340 277 343 277 364 277 343 277 365 277 365 278 343 278 342 278 365 278 342 278 366 278 366 279 342 279 350 279 366 279 350 279 367 279 367 16 350 16 349 16 367 280 349 280 368 280 368 281 349 281 348 281 368 282 348 282 369 282 369 283 348 283 347 283 369 283 347 283 370 283 370 284 347 284 345 284 370 284 345 284 371 284 371 285 345 285 344 285 371 285 344 285 372 285 372 286 344 286 336 286 372 286 336 286 373 286 373 287 336 287 335 287 373 288 335 288 363 288 363 289 335 289 374 289 363 290 374 290 337 290 369 267 370 267 375 267 375 266 370 266 371 266 375 266 371 266 372 266 366 267 367 267 375 267 375 266 367 266 368 266 375 266 368 266 369 266 362 266 364 266 375 266 375 266 364 266 365 266 375 266 365 266 366 266 372 266 373 266 375 266 375 266 373 266 363 266 375 266 363 266 362 266 361 291 360 291 376 291 376 292 360 292 377 292 376 293 377 293 378 293 378 294 377 294 379 294 379 295 377 295 380 295 379 296 380 296 381 296 381 297 380 297 382 297 382 298 380 298 383 298 382 299 383 299 384 299 384 300 383 300 385 300 385 301 383 301 386 301 385 302 386 302 387 302 387 303 386 303 388 303 388 304 386 304 335 304 388 305 335 305 334 305 359 306 361 306 389 306 389 306 361 306 376 306 389 307 376 307 390 307 390 307 376 307 378 307 390 308 378 308 391 308 391 308 378 308 379 308 391 309 379 309 392 309 392 309 379 309 381 309 392 310 381 310 393 310 393 310 381 310 382 310 393 311 382 311 394 311 394 312 382 312 384 312 394 313 384 313 395 313 395 313 384 313 385 313 395 314 385 314 396 314 396 315 385 315 387 315 396 316 387 316 397 316 397 316 387 316 388 316 397 317 388 317 351 317 351 317 388 317 334 317 358 318 356 318 398 318 398 319 356 319 399 319 398 320 399 320 400 320 400 321 399 321 401 321 400 322 401 322 402 322 402 323 401 323 403 323 402 324 403 324 404 324 404 325 403 325 405 325 404 326 405 326 374 326 374 327 405 327 337 327 360 328 358 328 377 328 377 329 358 329 398 329 377 330 398 330 380 330 380 331 398 331 400 331 380 332 400 332 383 332 383 333 400 333 402 333 383 334 402 334 386 334 386 335 402 335 404 335 386 336 404 336 335 336 335 337 404 337 374 337 357 338 359 338 406 338 406 338 359 338 389 338 406 339 389 339 407 339 407 339 389 339 390 339 407 340 390 340 408 340 408 340 390 340 391 340 408 341 391 341 409 341 409 341 391 341 392 341 409 342 392 342 410 342 396 343 411 343 395 343 395 344 411 344 412 344 395 344 412 344 394 344 394 345 412 345 410 345 394 345 410 345 393 345 393 342 410 342 392 342 351 346 353 346 397 346 397 346 353 346 413 346 397 347 413 347 396 347 396 347 413 347 414 347 396 343 414 343 411 343 338 305 337 305 415 305 415 348 337 348 405 348 415 303 405 303 416 303 416 302 405 302 417 302 417 349 405 349 403 349 417 300 403 300 418 300 401 350 419 350 403 350 403 351 419 351 420 351 403 299 420 299 418 299 399 352 356 352 355 352 355 353 421 353 399 353 399 293 421 293 422 293 399 354 422 354 401 354 401 355 422 355 423 355 401 296 423 296 419 296 355 356 357 356 421 356 421 356 357 356 406 356 421 357 406 357 422 357 422 357 406 357 407 357 422 358 407 358 423 358 423 358 407 358 408 358 423 359 408 359 419 359 419 359 408 359 409 359 419 360 409 360 420 360 414 361 417 361 411 361 411 362 417 362 418 362 411 363 418 363 412 363 412 364 418 364 420 364 412 365 420 365 410 365 410 360 420 360 409 360 353 366 338 366 413 366 413 367 338 367 415 367 413 368 415 368 414 368 414 368 415 368 416 368 414 369 416 369 417 369</p>
        </triangles>
      </mesh>
    </geometry>
  </library_geometries>
  <library_visual_scenes>
    <visual_scene id="DefaultScene">
      <node id="node_cf70b7be_1eda_4c50_905b_39536305c143" type="NODE">
        <matrix>1 0 0 0 0 1 0 0 0 0 1 0 0 0 0 1</matrix>
        <node id="node_64e4538c_f0fe_4d81_810b_1f55169df7a5" type="NODE">
          <matrix>1 0 0 0 0 1 0 0 0 0 1 0 0 0 0 1</matrix>
          <node id="node_64e4538c_f0fe_4d81_810b_1f55169df7a5_mesh0" type="NODE">
            <matrix>1 0 0 0 0 1 0 0 0 0 1 0 0 0 0 1</matrix>
            <instance_geometry url="#geometry_220ed6c7_fca3_49cd_bc75_5344f8cf82d6">
              <bind_material>
                <technique_common>
                  <instance_material symbol="mat_0" target="#mat_0"/>
                </technique_common>
              </bind_material>
            </instance_geometry>
          </node>
        </node>
      </node>
    </visual_scene>
  </library_visual_scenes>
  <scene>
    <instance_visual_scene url="#DefaultScene"/>
  </scene>
</COLLADA>
