<?xml version="1.0" encoding="UTF-8"?>
<COLLADA xmlns="http://www.collada.org/2005/11/COLLADASchema" version="1.4.1">
<!--
# File generated by ImageToStl.com - Free Image and 3D model conversion tools
-->
  <asset>
    <contributor>
      <author>ImageToStl.com</author>
      <authoring_tool>ImageToStl.com</authoring_tool>
    </contributor>
    <created>2025-05-24T10:38:41</created>
    <modified>2025-05-24T10:38:41</modified>
    <up_axis>Z_UP</up_axis>
  </asset>
  <library_effects>
    <effect id="effect_0">
        <profile_COMMON>
          <technique sid="common">
            <phong>
              <diffuse>
                <color>0.85 0.85 0.85 1</color>
              </diffuse>
              <specular>
                <color>0.05 0.05 0.05 1</color>
              </specular>
              <shininess>
                <float>64</float>
              </shininess>
            </phong>
          </technique>
        </profile_COMMON>
    </effect>
  </library_effects>
  <library_materials>
    <material id="mat_0">
      <instance_effect url="#effect_0"/>
    </material>
  </library_materials>
  <library_geometries>
    <geometry id="geometry_8304a512_8112_46bb_97c6_2afce1ac3c46">
      <mesh>
        <source id="pos_0">
          <float_array id="pos_0-array" count="192">87.75 164 13 115.96500397 164 0 87.75 164 2.99999857 48.03500366 164 0 76.25 164 2.99999857 76.25 164 13 48.03500366 164 122.99999237 115.96500397 164 122.99999237 48.03500366 0 0 76.25 0 2.99999857 76.25 0 13 87.75 0 2.99999857 115.96500397 0 0 87.75 0 13 115.96500397 0 122.99999237 48.03500366 0 122.99999237 87.75 155.5 2.99999857 112.44418335 155.5 2.99999857 87.75 155.5 13 112.44418335 155.5 73 76.25 155.5 13 51.55581665 155.5 73 76.25 155.5 2.99999857 51.55581665 155.5 2.99999857 76.25 8.49999905 2.99999857 51.55581665 8.49999905 2.99999857 76.25 8.49999905 13 51.55581665 8.49999905 73 87.75 8.49999905 13 112.44418335 8.49999905 73 87.75 8.49999905 2.99999857 112.44418335 8.49999905 2.99999857 164 48.03499985 122.99999237 164 48.03499985 0 164 76.25 2.99999857 164 76.25 13 164 87.75 2.99999857 164 115.96499634 0 164 87.75 13 164 115.96499634 122.99999237 0 115.96499634 122.99999237 0 115.96499634 0 0 87.75 13 0 48.03499985 122.99999237 0 76.25 13 0 48.03499985 0 0 76.25 2.99999857 0 87.75 2.99999857 155.5 112.44418335 73 155.5 112.44418335 2.99999857 155.5 76.25 2.99999857 155.5 51.55581284 2.99999857 155.5 76.25 13 155.5 51.55581284 73 155.5 87.75 13 155.5 87.75 2.99999857 8.50000191 51.55581284 73 8.50000191 51.55581284 2.99999857 8.50000191 87.75 2.99999857 8.50000191 112.44418335 2.99999857 8.50000191 87.75 13 8.50000191 112.44418335 73 8.50000191 76.25 13 8.50000191 76.25 2.99999857</float_array>
          <technique_common>
            <accessor source="#pos_0-array" count="192" stride="3">
              <param name="X" type="float"/>
              <param name="Y" type="float"/>
              <param name="Z" type="float"/>
            </accessor>
          </technique_common>
        </source>
        <source id="norm_0">
          <float_array id="norm_0-array" count="36">0 1 0 0 -1 0 0.70711 -0.70711 0 1 0 0 0.70711 0.70711 0 -0.70711 0.70711 0 -1 0 0 -0.70711 -0.70711 -0 0 0 -1 -0.70711 -0.70711 -0 0.70711 0.70711 0 0 -0 1</float_array>
          <technique_common>
            <accessor source="#norm_0-array" count="36" stride="3">
              <param name="X" type="float"/>
              <param name="Y" type="float"/>
              <param name="Z" type="float"/>
            </accessor>
          </technique_common>
        </source>
        <source id="uvs_0">
          <float_array id="uvs_0-array" count="0"></float_array>
          <technique_common>
            <accessor source="#uvs_0-array" count="0" stride="2">
              <param name="S" type="float"/>
              <param name="T" type="float"/>
            </accessor>
          </technique_common>
        </source>
        <vertices id="vert_0">
          <input semantic="POSITION" source="#pos_0"/>
        </vertices>
        <triangles count="136" material="mat_0">
          <input semantic="VERTEX" source="#vert_0" offset="0"/>
          <input semantic="NORMAL" source="#norm_0" offset="1"/>
          <p>0 0 1 0 2 0 2 0 1 0 3 0 2 0 3 0 4 0 4 0 3 0 5 0 5 0 3 0 6 0 5 0 6 0 0 0 0 0 6 0 7 0 0 0 7 0 1 0 8 1 9 1 10 1 9 1 8 1 11 1 11 1 8 1 12 1 11 1 12 1 13 1 13 1 12 1 14 1 13 1 14 1 10 1 10 1 14 1 15 1 10 1 15 1 8 1 16 1 17 1 18 1 18 1 17 1 19 1 18 1 19 1 20 1 20 1 19 1 21 1 20 1 21 1 22 1 22 1 21 1 23 1 24 0 25 0 26 0 26 0 25 0 27 0 26 0 27 0 28 0 28 0 27 0 29 0 28 0 29 0 30 0 30 0 29 0 31 0 32 2 14 2 33 2 33 2 14 2 12 2 33 3 34 3 35 3 34 3 33 3 36 3 36 3 33 3 37 3 36 3 37 3 38 3 38 3 37 3 39 3 38 3 39 3 35 3 35 3 39 3 32 3 35 3 32 3 33 3 7 4 39 4 1 4 1 4 39 4 37 4 40 5 6 5 41 5 41 5 6 5 3 5 42 6 40 6 41 6 40 6 42 6 43 6 43 6 42 6 44 6 43 6 44 6 45 6 45 6 44 6 46 6 45 6 46 6 41 6 41 6 46 6 47 6 41 6 47 6 42 6 15 7 43 7 8 7 8 7 43 7 45 7 8 8 45 8 41 8 41 8 3 8 1 8 12 8 8 8 33 8 33 8 8 8 41 8 33 8 41 8 37 8 37 8 41 8 1 8 48 9 19 9 49 9 49 9 19 9 17 9 50 6 51 6 52 6 52 6 51 6 53 6 52 6 53 6 54 6 54 6 53 6 48 6 54 6 48 6 55 6 55 6 48 6 49 6 29 5 53 5 31 5 31 5 53 5 51 5 56 10 27 10 57 10 57 10 27 10 25 10 58 3 59 3 60 3 60 3 59 3 61 3 60 3 61 3 62 3 62 3 61 3 56 3 62 3 56 3 63 3 63 3 56 3 57 3 21 2 61 2 23 2 23 2 61 2 59 2 55 11 49 11 17 11 63 11 57 11 25 11 2 11 4 11 16 11 16 11 4 11 22 11 9 11 11 11 24 11 24 11 11 11 30 11 47 11 46 11 58 11 58 11 46 11 63 11 34 11 36 11 50 11 50 11 36 11 55 11 23 11 59 11 22 11 22 11 59 11 58 11 22 11 58 11 16 11 16 11 58 11 63 11 16 11 63 11 24 11 24 11 63 11 25 11 31 11 51 11 30 11 30 11 51 11 50 11 30 11 50 11 24 11 24 11 50 11 55 11 24 11 55 11 16 11 16 11 55 11 17 11 63 0 46 0 62 0 62 0 46 0 44 0 60 1 42 1 58 1 58 1 42 1 47 1 62 8 44 8 60 8 60 8 44 8 42 8 38 8 35 8 54 8 54 8 35 8 52 8 36 1 38 1 55 1 55 1 38 1 54 1 35 0 34 0 52 0 52 0 34 0 50 0 26 8 28 8 10 8 10 8 28 8 13 8 28 6 30 6 13 6 13 6 30 6 11 6 24 3 26 3 9 3 9 3 26 3 10 3 5 8 0 8 20 8 20 8 0 8 18 8 4 3 5 3 22 3 22 3 5 3 20 3 0 6 2 6 18 6 18 6 2 6 16 6 21 8 19 8 61 8 61 8 19 8 48 8 61 8 48 8 56 8 53 8 29 8 48 8 48 8 29 8 27 8 48 8 27 8 56 8 6 11 40 11 43 11 43 11 15 11 14 11 7 11 6 11 39 11 39 11 6 11 43 11 39 11 43 11 32 11 32 11 43 11 14 11</p>
        </triangles>
      </mesh>
    </geometry>
  </library_geometries>
  <library_visual_scenes>
    <visual_scene id="DefaultScene">
      <node id="node_280ed603_ab3e_4976_adc5_0d75bdd71bc9" type="NODE">
        <matrix>1 0 0 0 0 1 0 0 0 0 1 0 0 0 0 1</matrix>
        <node id="node_f1397f9b_257f_400d_a077_79ec53c60002" type="NODE">
          <matrix>1 0 0 0 0 1 0 0 0 0 1 0 0 0 0 1</matrix>
          <node id="node_f1397f9b_257f_400d_a077_79ec53c60002_mesh0" type="NODE">
            <matrix>1 0 0 0 0 1 0 0 0 0 1 0 0 0 0 1</matrix>
            <instance_geometry url="#geometry_8304a512_8112_46bb_97c6_2afce1ac3c46">
              <bind_material>
                <technique_common>
                  <instance_material symbol="mat_0" target="#mat_0"/>
                </technique_common>
              </bind_material>
            </instance_geometry>
          </node>
        </node>
      </node>
    </visual_scene>
  </library_visual_scenes>
  <scene>
    <instance_visual_scene url="#DefaultScene"/>
  </scene>
</COLLADA>
